<svg width="111" height="56" viewBox="0 0 111 56" fill="none" xmlns="http://www.w3.org/2000/svg">
<rect width="111" height="56" rx="4" fill="#4CAF4F"/>
<path d="M33.9876 35V21.9091H35.5728V33.5938H41.658V35H33.9876ZM46.7972 35.2301C46.1751 35.2301 45.6104 35.1129 45.1033 34.8786C44.5962 34.6399 44.1935 34.2969 43.8952 33.8494C43.5969 33.3977 43.4478 32.8523 43.4478 32.2131C43.4478 31.6506 43.5586 31.1946 43.7802 30.8452C44.0018 30.4915 44.2979 30.2145 44.6687 30.0142C45.0394 29.8139 45.4485 29.6648 45.896 29.5668C46.3477 29.4645 46.8015 29.3835 47.2575 29.3239C47.854 29.2472 48.3377 29.1896 48.7085 29.1513C49.0835 29.1087 49.3562 29.0384 49.5266 28.9403C49.7013 28.8423 49.7887 28.6719 49.7887 28.429V28.3778C49.7887 27.7472 49.6161 27.2571 49.271 26.9077C48.93 26.5582 48.4123 26.3835 47.7177 26.3835C46.9975 26.3835 46.4329 26.5412 46.0238 26.8565C45.6147 27.1719 45.3271 27.5085 45.1609 27.8665L43.729 27.3551C43.9847 26.7585 44.3256 26.294 44.7518 25.9616C45.1822 25.625 45.6509 25.3906 46.158 25.2585C46.6694 25.1222 47.1722 25.054 47.6665 25.054C47.9819 25.054 48.3441 25.0923 48.7532 25.169C49.1665 25.2415 49.565 25.3928 49.9485 25.6229C50.3363 25.853 50.658 26.2003 50.9137 26.6648C51.1694 27.1293 51.2972 27.7514 51.2972 28.5312V35H49.7887V33.6705H49.712C49.6097 33.8835 49.4393 34.1115 49.2006 34.3544C48.962 34.5973 48.6445 34.804 48.2482 34.9744C47.8519 35.1449 47.3683 35.2301 46.7972 35.2301ZM47.0273 33.875C47.6239 33.875 48.1268 33.7578 48.5359 33.5234C48.9492 33.2891 49.2603 32.9865 49.4691 32.6158C49.6822 32.245 49.7887 31.8551 49.7887 31.446V30.0653C49.7248 30.142 49.5842 30.2124 49.3668 30.2763C49.1538 30.3359 48.9066 30.3892 48.6254 30.4361C48.3484 30.4787 48.0778 30.517 47.8136 30.5511C47.5536 30.581 47.3427 30.6065 47.1808 30.6278C46.7887 30.679 46.4222 30.7621 46.0813 30.8771C45.7447 30.9879 45.4719 31.1562 45.2631 31.3821C45.0586 31.6037 44.9563 31.9062 44.9563 32.2898C44.9563 32.8139 45.1502 33.2102 45.538 33.4787C45.93 33.7429 46.4265 33.875 47.0273 33.875ZM54.2551 35V21.9091H55.7637V26.7415H55.8915C56.0023 26.571 56.1557 26.3537 56.3517 26.0895C56.552 25.821 56.8375 25.5824 57.2083 25.3736C57.5833 25.1605 58.0904 25.054 58.7296 25.054C59.5563 25.054 60.285 25.2607 60.9157 25.674C61.5463 26.0874 62.0385 26.6733 62.3922 27.4318C62.7459 28.1903 62.9228 29.0852 62.9228 30.1165C62.9228 31.1562 62.7459 32.0575 62.3922 32.8203C62.0385 33.5788 61.5485 34.1669 60.9221 34.5845C60.2956 34.9979 59.5733 35.2045 58.7551 35.2045C58.1245 35.2045 57.6195 35.1001 57.2402 34.8913C56.861 34.6783 56.5691 34.4375 56.3645 34.169C56.16 33.8963 56.0023 33.6705 55.8915 33.4915H55.7125V35H54.2551ZM55.7381 30.0909C55.7381 30.8324 55.8468 31.4865 56.0641 32.0533C56.2814 32.6158 56.5989 33.0568 57.0165 33.3764C57.4341 33.6918 57.9455 33.8494 58.5506 33.8494C59.1813 33.8494 59.7076 33.6832 60.1294 33.3509C60.5556 33.0142 60.8752 32.5625 61.0882 31.9957C61.3056 31.4247 61.4142 30.7898 61.4142 30.0909C61.4142 29.4006 61.3077 28.7784 61.0946 28.2244C60.8858 27.6662 60.5684 27.2251 60.1422 26.9013C59.7203 26.5732 59.1898 26.4091 58.5506 26.4091C57.937 26.4091 57.4213 26.5646 57.0037 26.8757C56.5861 27.1825 56.2708 27.6129 56.0577 28.1669C55.8446 28.7166 55.7381 29.358 55.7381 30.0909ZM69.3468 35.2045C68.4007 35.2045 67.5847 34.9957 66.8986 34.5781C66.2168 34.1562 65.6905 33.5682 65.3198 32.8139C64.9533 32.0554 64.7701 31.1733 64.7701 30.1676C64.7701 29.1619 64.9533 28.2756 65.3198 27.5085C65.6905 26.7372 66.2061 26.1364 66.8667 25.706C67.5314 25.2713 68.307 25.054 69.1934 25.054C69.7047 25.054 70.2097 25.1392 70.7083 25.3097C71.2069 25.4801 71.6607 25.7571 72.0698 26.1406C72.4789 26.5199 72.8049 27.0227 73.0478 27.6491C73.2907 28.2756 73.4121 29.0469 73.4121 29.9631V30.6023H65.8439V29.2983H71.878C71.878 28.7443 71.7672 28.25 71.5456 27.8153C71.3283 27.3807 71.0172 27.0376 70.6124 26.7862C70.2118 26.5348 69.7388 26.4091 69.1934 26.4091C68.5925 26.4091 68.0726 26.5582 67.6337 26.8565C67.199 27.1506 66.8645 27.5341 66.6301 28.0071C66.3958 28.4801 66.2786 28.9872 66.2786 29.5284V30.3977C66.2786 31.1392 66.4064 31.7678 66.6621 32.2834C66.9221 32.7947 67.2821 33.1847 67.7424 33.4531C68.2026 33.7173 68.7374 33.8494 69.3468 33.8494C69.7431 33.8494 70.101 33.794 70.4206 33.6832C70.7445 33.5682 71.0236 33.3977 71.258 33.1719C71.4924 32.9418 71.6735 32.6562 71.8013 32.3153L73.2587 32.7244C73.1053 33.2188 72.8475 33.6534 72.4853 34.0284C72.123 34.3991 71.6756 34.6889 71.1429 34.8977C70.6103 35.1023 70.0115 35.2045 69.3468 35.2045ZM77.2154 21.9091V35H75.7069V21.9091H77.2154Z" fill="white"/>
</svg>
