<svg width="442" height="442" viewBox="0 0 442 442" fill="none" xmlns="http://www.w3.org/2000/svg">
<path d="M376.767 437.731C376.767 437.876 304.923 438 216.329 438C127.734 438 55.8591 437.876 55.8591 437.731C55.8591 437.586 127.693 437.461 216.329 437.461C304.965 437.461 376.767 437.596 376.767 437.731Z" fill="#263238"/>
<path d="M306.765 311.031C290.78 299.864 287.159 279.133 287.79 260.494C287.893 257.389 287.552 254.098 289.031 251.376C290.511 248.654 293.967 246.781 296.75 248.085C299.057 249.171 300.061 251.862 301.354 254.087C303.079 257.051 305.608 259.466 308.648 261.053C310.624 262.088 313.076 262.709 315.031 261.632C317.721 260.152 318.032 256.458 318.011 253.353C318.011 247.578 317.977 241.809 317.908 236.048C317.722 232.954 318.036 229.851 318.839 226.858C319.801 223.918 321.943 221.196 324.871 220.368C327.799 219.541 331.451 221.248 332.113 224.27C332.227 225.55 332.258 226.836 332.206 228.12C332.289 229.414 332.889 230.832 334.099 231.225C335.31 231.618 336.572 230.718 337.503 229.807C340.69 226.702 342.863 222.656 344.88 218.661C346.898 214.666 348.874 210.557 351.771 207.152C354.668 203.747 358.672 201.046 363.152 200.787C367.632 200.528 372.298 203.281 373.415 207.628C374.532 211.975 371.998 216.415 369.277 219.944C365.171 225.183 360.33 229.801 354.906 233.657C353.847 234.236 353.002 235.139 352.495 236.234C351.823 238.304 353.778 240.374 355.816 241.026C358.123 241.792 360.627 241.554 363.059 241.844C365.49 242.134 368.076 243.189 368.997 245.466C370.259 248.633 367.611 251.945 365.014 254.118C359.799 258.465 353.878 261.885 347.508 264.23C345.232 265.058 342.842 265.793 341 267.387C339.159 268.981 338.062 271.765 339.169 273.948C340.276 276.132 343.121 276.825 345.511 276.38C347.901 275.935 350.022 274.652 352.298 273.793C356.551 272.189 362.034 272.479 364.714 276.153C365.544 277.418 366.07 278.859 366.249 280.362C366.429 281.865 366.257 283.39 365.749 284.815C364.713 287.653 363.119 290.253 361.062 292.464C354.285 300.563 345.481 306.716 335.548 310.296C325.688 313.711 316.552 314.643 306.755 311.052" fill="#4CAF4F"/>
<path d="M368.863 203.343C368.863 203.343 368.77 203.447 368.563 203.633L367.642 204.451C366.835 205.175 365.645 206.231 364.145 207.628C359.891 211.579 355.942 215.844 352.329 220.389C350.022 223.256 347.632 226.506 345.087 230.035C342.542 233.564 339.914 237.373 337.307 241.42C334.527 245.687 331.982 250.102 329.682 254.646C328.481 257.016 327.426 259.49 326.34 262.015L323.133 269.726C318.905 279.438 315.223 289.378 312.103 299.501C309.591 307.784 307.859 316.283 306.93 324.889C306.329 330.696 306.232 336.545 306.641 342.369C306.806 344.439 306.961 346.023 307.106 347.099C307.168 347.617 307.21 348.031 307.251 348.331V348.755C307.207 348.62 307.175 348.482 307.158 348.341C307.106 348.041 307.044 347.637 306.961 347.12C306.775 346.085 306.579 344.45 306.392 342.38C305.893 336.545 305.928 330.676 306.496 324.847C307.367 316.205 309.061 307.666 311.555 299.346C314.648 289.195 318.32 279.229 322.553 269.498L325.843 261.819C326.93 259.304 327.995 256.809 329.206 254.429C331.522 249.871 334.088 245.445 336.893 241.171C339.542 237.031 342.211 233.285 344.725 229.787C347.239 226.288 349.671 223.018 351.967 220.161C355.616 215.629 359.619 211.393 363.938 207.494C365.469 206.117 366.69 205.082 367.518 204.389L368.48 203.612C368.598 203.51 368.726 203.42 368.863 203.343Z" fill="#263238"/>
<path d="M329.34 254.408C329.194 253.982 329.094 253.541 329.04 253.094C328.875 252.235 328.688 251.024 328.471 249.451C328.026 246.346 327.571 242.092 327.085 237.383C326.599 232.674 326.05 228.41 325.595 225.336C325.357 223.805 325.15 222.573 325.005 221.714C324.892 221.274 324.833 220.822 324.829 220.368C325.007 220.783 325.136 221.217 325.212 221.662C325.44 222.511 325.698 223.732 325.988 225.274C326.578 228.379 327.157 232.602 327.643 237.321C328.13 242.04 328.544 246.18 328.864 249.399C329.02 250.848 329.154 252.08 329.258 253.063C329.338 253.506 329.366 253.958 329.34 254.408Z" fill="#263238"/>
<path d="M369.152 246.977C368.649 247.087 368.136 247.149 367.621 247.163C366.587 247.257 365.117 247.381 363.296 247.588C359.655 247.981 354.647 248.706 349.153 249.741C343.659 250.775 338.724 251.945 335.176 252.845C333.406 253.301 331.979 253.715 331.037 253.994C330.534 254.173 330.014 254.298 329.485 254.367C329.963 254.126 330.462 253.929 330.975 253.777C331.947 253.435 333.355 252.959 335.113 252.452C338.641 251.417 343.577 250.186 349.091 249.13C353.762 248.236 358.476 247.58 363.214 247.163C365.045 247.008 366.524 246.946 367.559 246.925C368.091 246.889 368.624 246.907 369.152 246.977Z" fill="#263238"/>
<path d="M312.062 298.622C311.952 298.472 311.861 298.309 311.793 298.135L311.11 296.697C310.521 295.445 309.724 293.592 308.772 291.325C306.848 286.772 304.396 280.396 301.788 273.317C299.181 266.238 296.781 259.863 294.96 255.257C294.07 253.022 293.336 251.19 292.787 249.824L292.208 248.344C292.127 248.173 292.072 247.992 292.042 247.805C292.153 247.955 292.243 248.119 292.311 248.292L292.994 249.73C293.573 250.983 294.38 252.835 295.332 255.102C297.257 259.656 299.709 266.031 302.316 273.11C304.923 280.189 307.324 286.565 309.145 291.17C310.034 293.406 310.769 295.238 311.307 296.604C311.545 297.194 311.741 297.639 311.897 298.084C311.977 298.254 312.033 298.436 312.062 298.622Z" fill="#263238"/>
<path d="M364.91 281.576C364.745 281.671 364.567 281.744 364.383 281.793L362.852 282.311L357.192 284.143C352.412 285.695 345.811 287.91 338.569 290.353C331.327 292.795 324.695 294.968 319.884 296.417C317.483 297.152 315.528 297.711 314.173 298.084L312.61 298.487C312.429 298.545 312.242 298.583 312.052 298.601C312.217 298.506 312.395 298.433 312.579 298.384L314.111 297.866L319.77 296.034C324.55 294.482 331.151 292.267 338.393 289.825C345.636 287.382 352.257 285.209 357.068 283.76C359.479 283.025 361.424 282.466 362.789 282.094L364.352 281.69C364.533 281.632 364.721 281.594 364.91 281.576Z" fill="#263238"/>
<path d="M343.349 30.5259L338.021 32.4303L335.734 25.465C331.534 12.6212 318.146 5.80077 305.844 10.1373C293.542 14.4737 286.993 28.5595 291.194 41.4033L293.48 48.3686L288.131 50.2833C286.092 51.0747 284.435 52.6219 283.507 54.6033C282.578 56.5848 282.448 58.848 283.144 60.9227L297.971 106.243C298.278 107.271 298.789 108.225 299.473 109.051C300.157 109.876 301 110.556 301.951 111.049C302.903 111.543 303.944 111.84 305.013 111.923C306.081 112.005 307.156 111.873 308.172 111.532L363.39 91.7748C365.456 90.9848 367.136 89.4238 368.076 87.4203C369.015 85.4167 369.142 83.1267 368.428 81.0319L353.592 35.7111C353.276 34.6869 352.757 33.7369 352.066 32.9177C351.376 32.0985 350.527 31.4269 349.571 30.943C348.615 30.459 347.571 30.1727 346.502 30.1011C345.433 30.0294 344.361 30.1739 343.349 30.5259ZM301.261 37.7706C300.128 34.4311 300.331 30.7826 301.828 27.5896C303.325 24.3966 305.998 21.9069 309.289 20.6421C310.914 20.0859 312.635 19.8629 314.348 19.9863C316.061 20.1097 317.731 20.5771 319.26 21.3604C320.788 22.1438 322.143 23.2271 323.244 24.5458C324.345 25.8644 325.169 27.3914 325.667 29.0356L327.943 36.0009L303.537 44.7359L301.261 37.7706ZM332.299 77.9891L336.086 89.56C336.155 89.792 336.133 90.0419 336.023 90.2577C335.913 90.4736 335.725 90.6388 335.496 90.7191L330.189 92.6131C329.977 92.6717 329.752 92.6462 329.559 92.542C329.366 92.4378 329.221 92.263 329.154 92.0542L325.336 80.5351C323.231 80.4204 321.211 79.6651 319.547 78.3703C317.883 77.0756 316.654 75.3032 316.025 73.2904C315.125 70.6295 315.289 67.7235 316.483 65.1808C317.676 62.6382 319.807 60.6562 322.429 59.6497C323.723 59.2073 325.094 59.0301 326.458 59.1286C327.822 59.2272 329.153 59.5995 330.37 60.2234C331.588 60.8473 332.667 61.71 333.544 62.7601C334.421 63.8102 335.078 65.0261 335.475 66.3355C336.141 68.3801 336.196 70.5745 335.634 72.65C335.072 74.7254 333.916 76.5917 332.31 78.0202L332.299 77.9891Z" fill="#4CAF4F"/>
<path d="M337.783 32.3058C337.783 32.4507 327.902 36.1662 315.611 40.5855C303.32 45.0047 293.294 48.5547 293.242 48.4512C293.191 48.3477 303.123 44.6011 315.425 40.1715C327.726 35.7419 337.731 32.1713 337.783 32.3058Z" fill="#263238"/>
<path d="M349.515 34.2101C349.561 34.2999 349.599 34.3934 349.629 34.4895C349.712 34.6965 349.805 34.9656 349.929 35.2968C350.198 36.0523 350.571 37.0976 351.036 38.4017L355.009 49.9725C356.664 54.8782 358.641 60.6947 360.834 67.1528C361.869 70.3922 363.089 73.7662 364.228 77.3161C364.837 79.1454 365.1 81.0723 365.004 82.998C364.916 83.9995 364.631 84.9738 364.165 85.8649C363.668 86.7529 363.004 87.5366 362.21 88.1728C360.612 89.34 358.837 90.2449 356.954 90.8534L351.626 92.768L341.538 96.38L324.457 102.466L312.921 106.523L309.817 107.558L308.989 107.827C308.901 107.866 308.806 107.891 308.71 107.899C308.71 107.899 308.793 107.899 308.968 107.775L309.775 107.454L312.879 106.285L324.353 102.062L341.404 95.8522L351.471 92.2092L356.799 90.2841C358.629 89.7004 360.351 88.823 361.9 87.6864C362.639 87.096 363.257 86.3686 363.721 85.544C364.159 84.72 364.423 83.8146 364.497 82.8842C364.592 81.0287 364.339 79.1718 363.752 77.4093C362.634 73.8904 361.455 70.4854 360.389 67.246C358.237 60.7775 356.251 54.9403 354.678 50.0346C353.105 45.1289 351.781 41.1857 350.871 38.412C350.436 37.0562 350.105 36.0006 349.836 35.2347L349.588 34.4067C349.556 34.344 349.532 34.2781 349.515 34.2101Z" fill="#263238"/>
<path d="M320.38 19.938C320.38 19.938 319.832 19.6689 318.818 19.2549C317.373 18.6994 315.844 18.3915 314.297 18.3442C312.003 18.2655 309.72 18.6967 307.613 19.6068C305.051 20.7401 302.86 22.5731 301.292 24.8955C299.713 27.2112 298.866 29.9479 298.86 32.7508C298.882 35.0481 299.23 37.3307 299.895 39.5298C300.433 41.4134 300.992 42.9141 301.364 43.9594C301.584 44.4903 301.764 45.0369 301.902 45.5946C301.608 45.0982 301.362 44.5749 301.168 44.0318C300.743 42.9969 300.133 41.5272 299.533 39.6333C298.796 37.4111 298.395 35.0914 298.343 32.7508C298.315 29.842 299.182 26.9949 300.826 24.5953C302.449 22.1881 304.73 20.2984 307.396 19.1514C309.569 18.2364 311.923 17.8327 314.276 17.9716C315.857 18.0522 317.41 18.4204 318.86 19.0583C319.247 19.2371 319.621 19.4447 319.977 19.6793C320.124 19.7439 320.26 19.8312 320.38 19.938Z" fill="#263238"/>
<path d="M320.856 60.436C321.021 60.3359 321.194 60.2494 321.374 60.1773C321.892 59.9435 322.428 59.7531 322.977 59.6081C323.849 59.3506 324.749 59.1977 325.657 59.1527C326.892 59.0863 328.128 59.2729 329.288 59.7012C331.937 60.6327 334.368 63.3339 335.569 66.9459C336.144 68.8843 336.144 70.9482 335.569 72.8866C334.93 74.9904 333.787 76.9057 332.237 78.465L332.299 78.1856C333.675 81.9632 335.175 86.0616 336.727 90.336L336.821 90.5947L336.562 90.6879L334.193 91.4744L329.019 93.2028L328.761 93.2856L328.678 93.0269C327.261 88.7421 325.709 84.7472 324.54 80.8247L324.767 81.0007C322.745 80.8326 320.816 80.0732 319.222 78.8169C317.779 77.7055 316.596 76.2927 315.756 74.6771C314.997 73.2443 314.619 71.6405 314.659 70.0197C314.707 68.3632 315.12 66.7378 315.87 65.2599C316.619 63.782 317.686 62.4881 318.994 61.471C319.532 61.0338 320.136 60.6845 320.784 60.436C320.199 60.7829 319.633 61.1594 319.087 61.5641C317.65 62.7801 316.55 64.3444 315.89 66.1076C315.324 67.4372 315.059 68.8756 315.115 70.3196C315.17 71.7637 315.545 73.1775 316.211 74.4597C317.037 76.014 318.192 77.37 319.594 78.434C321.115 79.6281 322.954 80.3479 324.881 80.5039H325.057L325.109 80.6591C326.247 84.5092 327.809 88.5352 329.247 92.8406L328.906 92.675L334.079 90.9466L336.438 90.1497L336.272 90.5016C334.731 86.2272 333.241 82.1184 331.875 78.3408V78.1856L331.999 78.0614C333.503 76.5668 334.625 74.7313 335.269 72.7106C335.817 70.8564 335.817 68.8829 335.269 67.0287C334.141 63.5513 331.813 60.9121 329.288 59.9807C328.171 59.5496 326.978 59.349 325.781 59.3907C324.887 59.4112 323.999 59.5327 323.132 59.753C321.591 60.1359 320.867 60.4878 320.856 60.436Z" fill="#263238"/>
<path d="M288.876 359.27L185.528 358.794C179.56 358.761 173.848 356.36 169.649 352.118C165.449 347.876 163.104 342.14 163.128 336.17L164.225 77.0062C164.237 74.0483 164.832 71.1219 165.976 68.3941C167.119 65.6663 168.789 63.1907 170.889 61.1088C172.99 59.0269 175.48 57.3795 178.217 56.2608C180.954 55.1421 183.885 54.574 186.842 54.589L290.18 55.0651C296.148 55.0952 301.86 57.4936 306.062 61.7337C310.264 65.9737 312.612 71.7086 312.59 77.6789L311.493 336.833C311.481 339.791 310.886 342.719 309.743 345.448C308.6 348.177 306.93 350.654 304.83 352.737C302.73 354.821 300.24 356.47 297.503 357.591C294.765 358.712 291.834 359.283 288.876 359.27Z" fill="#455A64"/>
<path d="M290.025 63.9758H269.994C269.341 63.988 268.696 64.1288 268.097 64.3902C267.498 64.6516 266.956 65.0286 266.502 65.4995C266.049 65.9705 265.693 66.5262 265.454 67.1349C265.215 67.7436 265.099 68.3934 265.111 69.0471V72.6799C265.123 73.3331 265.007 73.9824 264.768 74.5905C264.529 75.1986 264.172 75.7537 263.719 76.2238C263.265 76.6939 262.723 77.0698 262.124 77.3302C261.525 77.5905 260.881 77.73 260.228 77.7408L221.181 77.5649C219.86 77.5296 218.607 76.9714 217.697 76.0128C216.788 75.0542 216.295 73.7736 216.329 72.4522V68.8195C216.362 67.4998 215.871 66.2207 214.964 65.2624C214.056 64.3041 212.806 63.7447 211.487 63.7068H204.441L186.904 63.624C182.733 63.5991 178.722 65.2287 175.749 68.1558C172.776 71.0829 171.084 75.0691 171.043 79.2415L170.009 332.206C169.999 334.276 170.397 336.328 171.18 338.244C171.963 340.16 173.116 341.903 174.573 343.373C176.029 344.843 177.761 346.012 179.669 346.813C181.577 347.614 183.624 348.031 185.694 348.041L288.824 348.517C290.895 348.527 292.947 348.128 294.864 347.344C296.781 346.56 298.524 345.406 299.995 343.949C301.466 342.491 302.635 340.757 303.437 338.847C304.238 336.937 304.655 334.888 304.664 332.817L305.699 79.8521C305.724 75.6679 304.087 71.6451 301.147 68.668C298.208 65.6909 294.207 64.0032 290.025 63.9758Z" fill="white"/>
<path d="M276.15 314.767L199.464 314.436C198.668 314.436 198.026 313.567 198.037 312.511L198.119 292.443C198.119 291.408 198.771 290.518 199.568 290.518L276.254 290.87C276.695 290.946 277.09 291.19 277.356 291.551C277.622 291.911 277.739 292.361 277.682 292.805L277.609 312.852C277.609 313.918 276.947 314.777 276.15 314.767Z" fill="#4CAF4F"/>
<path d="M222.826 304.578C222.371 304.578 221.934 304.518 221.517 304.399C221.099 304.275 220.763 304.115 220.509 303.919L220.956 302.927C221.2 303.101 221.487 303.245 221.818 303.358C222.154 303.467 222.493 303.521 222.834 303.521C223.094 303.521 223.303 303.497 223.46 303.448C223.623 303.394 223.742 303.32 223.818 303.228C223.894 303.136 223.932 303.03 223.932 302.911C223.932 302.759 223.872 302.64 223.753 302.553C223.634 302.461 223.476 302.388 223.281 302.334C223.086 302.274 222.869 302.22 222.631 302.171C222.398 302.117 222.162 302.052 221.923 301.976C221.69 301.9 221.476 301.803 221.281 301.683C221.086 301.564 220.926 301.407 220.801 301.212C220.682 301.017 220.622 300.767 220.622 300.464C220.622 300.138 220.709 299.843 220.883 299.577C221.061 299.306 221.327 299.092 221.679 298.935C222.037 298.772 222.484 298.691 223.021 298.691C223.379 298.691 223.731 298.734 224.078 298.821C224.425 298.902 224.731 299.027 224.997 299.195L224.59 300.195C224.325 300.044 224.059 299.932 223.794 299.862C223.528 299.786 223.268 299.748 223.013 299.748C222.758 299.748 222.55 299.778 222.387 299.838C222.224 299.897 222.108 299.976 222.037 300.073C221.967 300.166 221.932 300.274 221.932 300.399C221.932 300.545 221.991 300.664 222.11 300.756C222.23 300.843 222.387 300.914 222.582 300.968C222.777 301.022 222.991 301.076 223.224 301.13C223.463 301.185 223.699 301.247 223.932 301.317C224.17 301.388 224.387 301.483 224.582 301.602C224.777 301.721 224.935 301.879 225.054 302.074C225.179 302.269 225.241 302.515 225.241 302.814C225.241 303.133 225.152 303.426 224.973 303.692C224.794 303.957 224.525 304.172 224.168 304.334C223.815 304.497 223.368 304.578 222.826 304.578ZM226.141 304.481V298.789H227.458V304.481H226.141ZM228.809 304.481V298.789H229.899L233.257 302.887H232.728V298.789H234.029V304.481H232.948L229.582 300.382H230.11V304.481H228.809ZM238.124 304.578C237.675 304.578 237.26 304.508 236.88 304.367C236.506 304.22 236.178 304.014 235.897 303.749C235.62 303.483 235.403 303.171 235.246 302.814C235.094 302.456 235.018 302.063 235.018 301.635C235.018 301.206 235.094 300.813 235.246 300.456C235.403 300.098 235.623 299.786 235.905 299.52C236.187 299.255 236.517 299.052 236.897 298.911C237.276 298.764 237.694 298.691 238.149 298.691C238.653 298.691 239.106 298.775 239.507 298.943C239.913 299.111 240.255 299.355 240.531 299.675L239.686 300.456C239.48 300.239 239.255 300.079 239.011 299.976C238.767 299.867 238.501 299.813 238.214 299.813C237.937 299.813 237.685 299.857 237.458 299.943C237.23 300.03 237.032 300.155 236.864 300.317C236.702 300.48 236.574 300.672 236.482 300.895C236.395 301.117 236.352 301.364 236.352 301.635C236.352 301.9 236.395 302.144 236.482 302.366C236.574 302.589 236.702 302.784 236.864 302.952C237.032 303.114 237.227 303.239 237.45 303.326C237.677 303.413 237.927 303.456 238.198 303.456C238.458 303.456 238.71 303.415 238.954 303.334C239.203 303.247 239.444 303.104 239.678 302.903L240.426 303.854C240.117 304.088 239.756 304.266 239.344 304.391C238.938 304.516 238.531 304.578 238.124 304.578ZM239.222 303.684V301.545H240.426V303.854L239.222 303.684ZM246.481 304.578C245.673 304.578 245.042 304.353 244.586 303.903C244.131 303.453 243.903 302.811 243.903 301.976V298.789H245.221V301.927C245.221 302.469 245.332 302.86 245.554 303.098C245.776 303.337 246.088 303.456 246.489 303.456C246.89 303.456 247.202 303.337 247.424 303.098C247.646 302.86 247.758 302.469 247.758 301.927V298.789H249.059V301.976C249.059 302.811 248.831 303.453 248.375 303.903C247.92 304.353 247.289 304.578 246.481 304.578ZM250.36 304.481V298.789H252.824C253.334 298.789 253.773 298.873 254.141 299.041C254.51 299.203 254.794 299.439 254.995 299.748C255.196 300.057 255.296 300.426 255.296 300.854C255.296 301.277 255.196 301.643 254.995 301.952C254.794 302.261 254.51 302.499 254.141 302.667C253.773 302.83 253.334 302.911 252.824 302.911H251.092L251.677 302.318V304.481H250.36ZM251.677 302.464L251.092 301.838H252.751C253.157 301.838 253.461 301.751 253.662 301.578C253.862 301.404 253.962 301.163 253.962 300.854C253.962 300.54 253.862 300.296 253.662 300.122C253.461 299.949 253.157 299.862 252.751 299.862H251.092L251.677 299.236V302.464Z" fill="#E8E8E3"/>
<path d="M214.76 138.338L188.15 138.217L188.128 143.102L214.738 143.223L214.76 138.338Z" fill="#4CAF4F"/>
<path opacity="0.1" d="M214.76 138.338L188.15 138.217L188.128 143.102L214.738 143.223L214.76 138.338Z" fill="black"/>
<path d="M292.766 168.331C292.975 168.31 293.181 168.261 293.377 168.186C293.663 168.074 293.912 167.884 294.095 167.636C294.278 167.389 294.388 167.095 294.411 166.789C294.411 165.143 294.411 162.742 294.411 159.658C294.411 158.116 294.411 156.388 294.411 154.483C294.411 154.017 294.411 153.531 294.411 153.045C294.479 152.573 294.376 152.092 294.122 151.689C293.979 151.495 293.794 151.338 293.58 151.228C293.367 151.119 293.131 151.06 292.891 151.057H291.277H276.326L189.791 150.737C189.569 150.733 189.35 150.783 189.152 150.882C188.954 150.981 188.783 151.126 188.653 151.306C188.403 151.711 188.307 152.192 188.384 152.662C188.384 153.697 188.384 154.732 188.384 155.767C188.384 157.836 188.384 159.906 188.384 161.976C188.384 163.011 188.384 164.046 188.384 165.081C188.341 165.563 188.341 166.048 188.384 166.53C188.438 166.737 188.539 166.928 188.679 167.09C188.819 167.251 188.994 167.378 189.191 167.462C189.394 167.543 189.613 167.581 189.832 167.575H195.098L218.077 167.7L256.979 167.938L283.207 168.145L290.335 168.227H292.187C292.611 168.227 292.818 168.227 292.818 168.227H292.187H290.335H283.207H256.979L218.077 168.103L195.098 168.01H189.832C189.542 168.022 189.253 167.972 188.984 167.865C188.711 167.749 188.469 167.572 188.275 167.348C188.082 167.123 187.942 166.858 187.866 166.572C187.806 166.3 187.786 166.021 187.804 165.744V164.978C187.804 163.943 187.804 162.908 187.804 161.873C187.804 159.803 187.804 157.733 187.804 155.663C187.804 154.628 187.804 153.593 187.804 152.558C187.784 152.283 187.784 152.006 187.804 151.73C187.843 151.426 187.961 151.137 188.146 150.892C188.324 150.642 188.56 150.439 188.834 150.3C189.108 150.162 189.411 150.091 189.718 150.095L276.254 150.571L291.204 150.675H292.818C293.103 150.675 293.383 150.744 293.635 150.875C293.887 151.007 294.104 151.197 294.267 151.43C294.558 151.88 294.676 152.421 294.598 152.951C294.598 153.438 294.598 153.924 294.598 154.39C294.598 156.274 294.598 158.002 294.598 159.565C294.598 162.67 294.525 165.05 294.505 166.706C294.479 167.024 294.364 167.329 294.171 167.584C293.979 167.839 293.717 168.033 293.418 168.145C293.222 168.266 292.997 168.331 292.766 168.331Z" fill="#E0E0E0"/>
<path d="M244.812 155.932H196.143V160.496H244.812V155.932Z" fill="#4CAF4F"/>
<path opacity="0.2" d="M244.812 155.932H196.143V160.496H244.812V155.932Z" fill="white"/>
<path d="M214.579 182.902L187.969 182.781L187.946 187.666L214.557 187.787L214.579 182.902Z" fill="#4CAF4F"/>
<path opacity="0.1" d="M214.579 182.902L187.969 182.781L187.946 187.666L214.557 187.787L214.579 182.902Z" fill="black"/>
<path d="M292.094 212.896C292.303 212.871 292.51 212.833 292.715 212.782C293.004 212.69 293.27 212.537 293.494 212.334C293.719 212.13 293.898 211.881 294.018 211.603C294.181 211.185 294.245 210.735 294.205 210.288C294.205 209.791 294.205 209.253 294.205 208.653C294.205 207.452 294.205 206.086 294.205 204.513V197.941C294.254 197.465 294.149 196.986 293.904 196.575C293.649 196.153 293.248 195.84 292.777 195.695C292.261 195.603 291.737 195.575 291.214 195.612H276.326L190.091 195.292C189.627 195.293 189.179 195.462 188.831 195.769C188.483 196.075 188.258 196.498 188.197 196.958C188.197 197.941 188.197 199.028 188.197 200.063C188.197 202.133 188.197 204.203 188.197 206.272C188.197 207.307 188.197 208.342 188.197 209.377C188.159 209.861 188.18 210.348 188.259 210.826C188.389 211.246 188.655 211.61 189.015 211.861C189.397 212.104 189.846 212.22 190.298 212.192H191.736H194.726L217.622 212.306L256.389 212.544L282.524 212.751L289.632 212.834H282.524H256.389L217.601 212.793L194.705 212.71H190.205C189.645 212.743 189.09 212.594 188.622 212.286C188.151 211.959 187.807 211.48 187.649 210.93C187.556 210.404 187.528 209.869 187.566 209.336C187.566 208.301 187.566 207.266 187.566 206.231C187.566 204.161 187.566 202.091 187.566 200.021C187.566 198.986 187.566 197.951 187.566 196.916C187.642 196.325 187.93 195.781 188.378 195.386C188.825 194.992 189.401 194.774 189.998 194.774L276.233 195.25L291.121 195.364C291.676 195.33 292.232 195.368 292.777 195.478C293.314 195.654 293.768 196.022 294.049 196.513C294.317 196.969 294.433 197.498 294.38 198.024C294.38 198.51 294.38 198.986 294.38 199.462C294.38 201.336 294.38 203.054 294.38 204.637C294.38 206.221 294.38 207.556 294.38 208.777C294.38 209.367 294.38 209.916 294.38 210.423C294.418 210.886 294.343 211.351 294.163 211.778C294.029 212.064 293.835 212.317 293.594 212.521C293.352 212.725 293.07 212.874 292.766 212.958C292.54 212.977 292.313 212.956 292.094 212.896Z" fill="#E0E0E0"/>
<path d="M214.378 229.401L187.768 229.281L187.746 234.166L214.356 234.286L214.378 229.401Z" fill="#4CAF4F"/>
<path opacity="0.1" d="M214.378 229.401L187.768 229.281L187.746 234.166L214.356 234.286L214.378 229.401Z" fill="black"/>
<path d="M291.887 259.376C292.096 259.351 292.303 259.313 292.508 259.262C292.795 259.171 293.06 259.019 293.285 258.818C293.51 258.616 293.689 258.369 293.811 258.093C293.973 257.675 294.037 257.225 293.998 256.778C293.998 256.271 293.998 255.743 293.998 255.133C293.998 253.943 293.998 252.566 293.998 250.993V244.421C294.047 243.945 293.942 243.466 293.697 243.055C293.436 242.641 293.037 242.333 292.57 242.185C292.055 242.09 291.53 242.058 291.007 242.092H276.119L189.884 241.771C189.42 241.773 188.972 241.942 188.624 242.249C188.276 242.555 188.051 242.978 187.99 243.438C187.99 244.473 187.99 245.508 187.99 246.543C187.99 248.612 187.99 250.682 187.99 252.752C187.99 253.787 187.99 254.822 187.99 255.857C187.952 256.337 187.973 256.821 188.052 257.296C188.176 257.718 188.443 258.084 188.808 258.331C189.188 258.579 189.638 258.695 190.091 258.662H194.591L217.487 258.786L256.255 259.024L282.389 259.231L289.497 259.314H282.389H256.255L217.487 259.2L194.591 259.107H190.091C189.531 259.145 188.974 258.996 188.508 258.683C188.037 258.356 187.693 257.877 187.535 257.327C187.442 256.801 187.415 256.266 187.452 255.733C187.452 254.698 187.452 253.663 187.452 252.628C187.452 250.558 187.452 248.488 187.452 246.418C187.452 245.383 187.452 244.348 187.452 243.262C187.526 242.671 187.812 242.127 188.258 241.732C188.704 241.338 189.278 241.12 189.873 241.119L276.109 241.595L290.997 241.709C291.552 241.675 292.108 241.714 292.653 241.823C293.19 241.999 293.643 242.368 293.925 242.858C294.193 243.314 294.309 243.843 294.256 244.369C294.256 244.856 294.256 245.342 294.256 245.808C294.256 247.681 294.256 249.399 294.256 250.983C294.256 252.566 294.256 253.901 294.256 255.122C294.256 255.712 294.256 256.261 294.256 256.768C294.296 257.231 294.221 257.696 294.039 258.124C293.905 258.409 293.71 258.663 293.469 258.866C293.228 259.07 292.946 259.219 292.642 259.304C292.4 259.387 292.141 259.411 291.887 259.376Z" fill="#E0E0E0"/>
<path d="M243.773 201.788L195.105 201.567L195.084 206.131L243.752 206.352L243.773 201.788Z" fill="#4CAF4F"/>
<path opacity="0.2" d="M243.773 201.788L195.105 201.567L195.084 206.131L243.752 206.352L243.773 201.788Z" fill="white"/>
<path d="M199.506 250.931C199.475 251.347 199.323 251.745 199.068 252.076C198.814 252.407 198.468 252.655 198.073 252.791C197.678 252.927 197.253 252.944 196.849 252.839C196.444 252.735 196.08 252.515 195.8 252.205C195.52 251.896 195.337 251.511 195.273 251.098C195.21 250.686 195.269 250.264 195.444 249.884C195.618 249.505 195.9 249.185 196.254 248.965C196.608 248.744 197.019 248.633 197.436 248.644C198.013 248.676 198.553 248.934 198.941 249.362C199.328 249.79 199.531 250.354 199.506 250.931Z" fill="#4CAF4F"/>
<path d="M206.096 250.962C206.117 251.254 206.077 251.547 205.979 251.822C205.881 252.098 205.728 252.351 205.529 252.565C205.329 252.778 205.088 252.949 204.82 253.066C204.552 253.182 204.262 253.242 203.97 253.242C203.678 253.242 203.388 253.182 203.12 253.066C202.852 252.949 202.611 252.778 202.411 252.565C202.212 252.351 202.059 252.098 201.961 251.822C201.863 251.547 201.824 251.254 201.844 250.962C201.824 250.67 201.863 250.377 201.961 250.102C202.059 249.826 202.212 249.573 202.411 249.359C202.611 249.145 202.852 248.975 203.12 248.858C203.388 248.742 203.678 248.681 203.97 248.681C204.262 248.681 204.552 248.742 204.82 248.858C205.088 248.975 205.329 249.145 205.529 249.359C205.728 249.573 205.881 249.826 205.979 250.102C206.077 250.377 206.117 250.67 206.096 250.962Z" fill="#4CAF4F"/>
<path d="M212.697 250.993C212.667 251.409 212.515 251.807 212.26 252.138C212.005 252.469 211.659 252.717 211.264 252.853C210.87 252.989 210.444 253.006 210.04 252.902C209.636 252.798 209.271 252.577 208.991 252.268C208.711 251.958 208.528 251.573 208.465 251.161C208.402 250.748 208.461 250.326 208.635 249.947C208.809 249.567 209.091 249.248 209.445 249.027C209.8 248.806 210.211 248.695 210.628 248.706C211.203 248.74 211.742 248.999 212.129 249.427C212.516 249.855 212.72 250.417 212.697 250.993Z" fill="#4CAF4F"/>
<path d="M219.288 251.024C219.257 251.44 219.105 251.838 218.85 252.169C218.596 252.5 218.25 252.748 217.855 252.884C217.46 253.02 217.035 253.037 216.631 252.932C216.226 252.828 215.862 252.608 215.582 252.298C215.302 251.989 215.119 251.604 215.055 251.191C214.992 250.779 215.051 250.357 215.226 249.977C215.4 249.598 215.682 249.278 216.036 249.058C216.39 248.837 216.801 248.725 217.218 248.737C217.794 248.771 218.333 249.03 218.72 249.458C219.106 249.885 219.31 250.448 219.288 251.024Z" fill="#4CAF4F"/>
<path d="M225.878 251.045C225.85 251.461 225.699 251.861 225.446 252.193C225.192 252.525 224.847 252.775 224.452 252.913C224.057 253.05 223.631 253.068 223.226 252.965C222.821 252.862 222.456 252.642 222.175 252.333C221.894 252.024 221.71 251.639 221.646 251.226C221.582 250.813 221.64 250.39 221.814 250.01C221.989 249.63 222.27 249.31 222.625 249.089C222.98 248.868 223.391 248.756 223.809 248.768C224.382 248.802 224.92 249.06 225.306 249.485C225.693 249.911 225.898 250.47 225.878 251.045Z" fill="#4CAF4F"/>
<path d="M232.479 251.076C232.451 251.49 232.302 251.888 232.051 252.219C231.8 252.55 231.457 252.801 231.066 252.94C230.674 253.079 230.25 253.1 229.846 253.002C229.443 252.903 229.077 252.688 228.793 252.384C228.51 252.08 228.322 251.7 228.252 251.29C228.182 250.88 228.233 250.459 228.399 250.078C228.566 249.697 228.84 249.373 229.188 249.145C229.536 248.918 229.942 248.798 230.358 248.799C230.941 248.82 231.491 249.072 231.889 249.499C232.286 249.926 232.499 250.493 232.479 251.076Z" fill="#4CAF4F"/>
<path d="M239.07 251.107C239.09 251.399 239.05 251.691 238.952 251.967C238.855 252.243 238.702 252.496 238.502 252.709C238.303 252.923 238.061 253.094 237.793 253.21C237.525 253.327 237.236 253.387 236.943 253.387C236.651 253.387 236.362 253.327 236.094 253.21C235.825 253.094 235.584 252.923 235.385 252.709C235.185 252.496 235.032 252.243 234.934 251.967C234.837 251.691 234.797 251.399 234.817 251.107C234.797 250.815 234.837 250.522 234.934 250.246C235.032 249.971 235.185 249.718 235.385 249.504C235.584 249.29 235.825 249.12 236.094 249.003C236.362 248.887 236.651 248.826 236.943 248.826C237.236 248.826 237.525 248.887 237.793 249.003C238.061 249.12 238.303 249.29 238.502 249.504C238.702 249.718 238.855 249.971 238.952 250.246C239.05 250.522 239.09 250.815 239.07 251.107Z" fill="#4CAF4F"/>
<path d="M245.66 251.138C245.632 251.553 245.483 251.95 245.232 252.281C244.981 252.613 244.638 252.863 244.247 253.002C243.855 253.141 243.431 253.163 243.027 253.064C242.624 252.965 242.258 252.751 241.974 252.447C241.691 252.142 241.503 251.762 241.433 251.352C241.363 250.942 241.414 250.521 241.58 250.14C241.747 249.759 242.021 249.435 242.369 249.208C242.717 248.981 243.123 248.86 243.539 248.861C244.122 248.883 244.672 249.134 245.07 249.561C245.467 249.988 245.68 250.555 245.66 251.138Z" fill="#4CAF4F"/>
<path d="M252.251 251.169C252.222 251.586 252.072 251.985 251.818 252.317C251.565 252.649 251.219 252.9 250.825 253.037C250.43 253.174 250.004 253.192 249.599 253.089C249.194 252.986 248.828 252.767 248.547 252.457C248.266 252.148 248.082 251.763 248.018 251.35C247.954 250.937 248.013 250.515 248.187 250.135C248.361 249.755 248.643 249.434 248.998 249.214C249.352 248.993 249.764 248.881 250.181 248.892C250.755 248.927 251.292 249.184 251.679 249.609C252.065 250.035 252.271 250.594 252.251 251.169Z" fill="#4CAF4F"/>
<g opacity="0.2">
<path d="M199.506 250.931C199.475 251.347 199.323 251.745 199.068 252.076C198.814 252.407 198.468 252.655 198.073 252.791C197.678 252.927 197.253 252.944 196.849 252.839C196.444 252.735 196.08 252.515 195.8 252.205C195.52 251.896 195.337 251.511 195.273 251.098C195.21 250.686 195.269 250.264 195.444 249.884C195.618 249.505 195.9 249.185 196.254 248.965C196.608 248.744 197.019 248.633 197.436 248.644C198.013 248.676 198.553 248.934 198.941 249.362C199.328 249.79 199.531 250.354 199.506 250.931Z" fill="white"/>
<path d="M206.096 250.962C206.117 251.254 206.077 251.546 205.979 251.822C205.881 252.098 205.728 252.351 205.529 252.564C205.329 252.778 205.088 252.949 204.82 253.066C204.552 253.182 204.262 253.242 203.97 253.242C203.678 253.242 203.388 253.182 203.12 253.066C202.852 252.949 202.611 252.778 202.411 252.564C202.212 252.351 202.059 252.098 201.961 251.822C201.863 251.546 201.824 251.254 201.844 250.962C201.824 250.67 201.863 250.377 201.961 250.102C202.059 249.826 202.212 249.573 202.411 249.359C202.611 249.145 202.852 248.975 203.12 248.858C203.388 248.742 203.678 248.681 203.97 248.681C204.262 248.681 204.552 248.742 204.82 248.858C205.088 248.975 205.329 249.145 205.529 249.359C205.728 249.573 205.881 249.826 205.979 250.102C206.077 250.377 206.117 250.67 206.096 250.962Z" fill="white"/>
<path d="M212.697 250.993C212.667 251.409 212.515 251.807 212.26 252.138C212.005 252.469 211.659 252.717 211.264 252.853C210.87 252.989 210.444 253.006 210.04 252.902C209.636 252.797 209.271 252.577 208.991 252.267C208.711 251.958 208.528 251.573 208.465 251.16C208.402 250.748 208.461 250.326 208.635 249.946C208.809 249.567 209.091 249.247 209.445 249.027C209.8 248.806 210.211 248.695 210.628 248.706C211.203 248.74 211.742 248.999 212.129 249.427C212.516 249.854 212.72 250.417 212.697 250.993Z" fill="white"/>
<path d="M219.288 251.024C219.257 251.44 219.105 251.838 218.85 252.169C218.596 252.5 218.25 252.748 217.855 252.884C217.46 253.02 217.035 253.037 216.631 252.933C216.226 252.828 215.862 252.608 215.582 252.298C215.302 251.989 215.119 251.604 215.055 251.191C214.992 250.779 215.051 250.357 215.225 249.977C215.4 249.598 215.681 249.278 216.036 249.058C216.39 248.837 216.801 248.726 217.218 248.737C217.794 248.771 218.333 249.03 218.72 249.458C219.106 249.885 219.31 250.448 219.288 251.024Z" fill="white"/>
<path d="M225.878 251.045C225.85 251.461 225.699 251.861 225.446 252.193C225.192 252.525 224.847 252.775 224.452 252.913C224.057 253.05 223.631 253.068 223.226 252.965C222.821 252.862 222.456 252.642 222.175 252.333C221.894 252.024 221.71 251.639 221.646 251.226C221.582 250.813 221.64 250.39 221.814 250.01C221.989 249.63 222.27 249.31 222.625 249.089C222.98 248.868 223.391 248.756 223.809 248.768C224.382 248.802 224.92 249.06 225.306 249.485C225.693 249.911 225.898 250.47 225.878 251.045Z" fill="white"/>
<path d="M232.479 251.076C232.451 251.491 232.302 251.888 232.051 252.219C231.8 252.55 231.457 252.801 231.066 252.94C230.674 253.079 230.25 253.101 229.846 253.002C229.443 252.903 229.077 252.688 228.793 252.384C228.51 252.08 228.322 251.7 228.252 251.29C228.182 250.88 228.233 250.459 228.399 250.078C228.566 249.697 228.84 249.373 229.188 249.146C229.536 248.918 229.942 248.798 230.358 248.799C230.941 248.82 231.491 249.072 231.889 249.499C232.286 249.926 232.499 250.493 232.479 251.076Z" fill="white"/>
<path d="M239.07 251.107C239.09 251.399 239.05 251.692 238.952 251.967C238.855 252.243 238.702 252.496 238.502 252.71C238.303 252.923 238.061 253.094 237.793 253.211C237.525 253.327 237.236 253.387 236.943 253.387C236.651 253.387 236.362 253.327 236.094 253.211C235.825 253.094 235.584 252.923 235.385 252.71C235.185 252.496 235.032 252.243 234.934 251.967C234.837 251.692 234.797 251.399 234.817 251.107C234.797 250.815 234.837 250.522 234.934 250.247C235.032 249.971 235.185 249.718 235.385 249.504C235.584 249.29 235.825 249.12 236.094 249.003C236.362 248.887 236.651 248.827 236.943 248.827C237.236 248.827 237.525 248.887 237.793 249.003C238.061 249.12 238.303 249.29 238.502 249.504C238.702 249.718 238.855 249.971 238.952 250.247C239.05 250.522 239.09 250.815 239.07 251.107Z" fill="white"/>
<path d="M245.66 251.138C245.632 251.552 245.483 251.95 245.232 252.281C244.981 252.612 244.638 252.863 244.247 253.002C243.855 253.141 243.431 253.163 243.027 253.064C242.624 252.965 242.258 252.75 241.974 252.446C241.691 252.142 241.503 251.762 241.433 251.352C241.363 250.942 241.414 250.521 241.58 250.14C241.747 249.759 242.021 249.435 242.369 249.207C242.717 248.98 243.123 248.86 243.539 248.861C244.122 248.882 244.672 249.134 245.07 249.561C245.467 249.988 245.68 250.555 245.66 251.138Z" fill="white"/>
<path d="M252.251 251.169C252.222 251.586 252.072 251.985 251.818 252.317C251.565 252.649 251.219 252.9 250.824 253.037C250.43 253.174 250.004 253.192 249.599 253.089C249.194 252.986 248.828 252.766 248.547 252.457C248.266 252.148 248.082 251.763 248.018 251.35C247.954 250.937 248.013 250.514 248.187 250.135C248.361 249.755 248.643 249.434 248.997 249.213C249.352 248.993 249.764 248.881 250.181 248.892C250.755 248.927 251.292 249.184 251.679 249.609C252.065 250.035 252.271 250.594 252.251 251.169Z" fill="white"/>
</g>
<path d="M242.887 101.762C243.606 101.446 244.216 100.925 244.641 100.264C245.066 99.6035 245.287 98.8324 245.277 98.0469C245.304 97.5363 245.227 97.0255 245.05 96.5458C244.873 96.066 244.6 95.6273 244.248 95.2564C243.896 94.8855 243.473 94.5901 243.003 94.3882C242.533 94.1864 242.028 94.0823 241.516 94.0823C241.005 94.0823 240.499 94.1864 240.03 94.3882C239.56 94.5901 239.136 94.8855 238.785 95.2564C238.433 95.6273 238.16 96.066 237.983 96.5458C237.806 97.0255 237.729 97.5363 237.756 98.0469C237.74 98.8403 237.959 99.6206 238.387 100.289C238.814 100.958 239.43 101.485 240.156 101.804C234.362 102.673 234.621 108.966 234.621 108.966L248.319 109.028C248.319 109.028 248.64 102.621 242.887 101.762Z" fill="#4CAF4F"/>
<path opacity="0.1" d="M242.887 101.762C243.606 101.446 244.216 100.925 244.641 100.264C245.066 99.6035 245.287 98.8324 245.277 98.0469C245.304 97.5363 245.227 97.0255 245.05 96.5458C244.873 96.066 244.6 95.6273 244.248 95.2564C243.896 94.8855 243.473 94.5901 243.003 94.3882C242.533 94.1864 242.028 94.0823 241.516 94.0823C241.005 94.0823 240.499 94.1864 240.03 94.3882C239.56 94.5901 239.136 94.8855 238.785 95.2564C238.433 95.6273 238.16 96.066 237.983 96.5458C237.806 97.0255 237.729 97.5363 237.756 98.0469C237.74 98.8403 237.959 99.6206 238.387 100.289C238.814 100.958 239.43 101.485 240.156 101.804C234.362 102.673 234.621 108.966 234.621 108.966L248.319 109.028C248.319 109.028 248.64 102.621 242.887 101.762Z" fill="black"/>
<path d="M265.147 113.086L216.323 112.865L216.297 118.702L265.12 118.923L265.147 113.086Z" fill="#4CAF4F"/>
<path opacity="0.2" d="M265.147 113.086L216.323 112.865L216.297 118.702L265.12 118.923L265.147 113.086Z" fill="white"/>
<path d="M85.6562 143.336H85.17L83.7629 143.44C83.0014 143.486 82.2442 143.586 81.4971 143.74C81.0131 143.808 80.5331 143.901 80.0589 144.019L78.4553 144.464C75.7258 145.302 73.1505 146.578 70.8301 148.242C67.7644 150.468 65.2045 153.318 63.3188 156.605C62.2104 158.499 61.3284 160.517 60.6909 162.618C60.0209 164.9 59.6352 167.257 59.5424 169.635C59.4808 170.884 59.5015 172.135 59.6045 173.381C59.6045 174.013 59.7804 174.644 59.8632 175.286C59.9328 175.932 60.0539 176.573 60.2253 177.2C61.1556 181.353 63.0433 185.231 65.7378 188.525C68.4323 191.819 71.859 194.437 75.7446 196.171C78.5568 197.385 81.571 198.062 84.632 198.168C87.7935 198.342 90.9582 197.889 93.9435 196.833L94.854 196.492H94.9782L95.0816 196.554L108.128 203.178L107.745 203.509C106.349 199.183 105.004 194.991 103.7 190.965V190.81L103.814 190.696C106.979 187.507 109.328 183.602 110.663 179.312C111.872 175.389 112.225 171.253 111.698 167.182C111.229 163.564 110.066 160.071 108.273 156.894C106.728 154.165 104.734 151.716 102.376 149.65C100.43 148.014 98.2766 146.643 95.9714 145.572C94.2272 144.819 92.4106 144.247 90.55 143.864L88.4807 143.523L86.9806 143.409L86.0701 143.347H85.7597C85.8628 143.335 85.9669 143.335 86.0701 143.347H86.9909L88.4911 143.409L90.5603 143.709C92.4441 144.064 94.2854 144.615 96.0542 145.355C98.399 146.413 100.591 147.781 102.572 149.422C104.974 151.479 107.01 153.929 108.594 156.667C110.438 159.877 111.636 163.418 112.122 167.089C112.693 171.222 112.365 175.43 111.16 179.425C109.816 183.805 107.43 187.793 104.207 191.048L104.269 190.779C105.573 194.805 106.928 198.996 108.335 203.312L108.532 203.944L107.942 203.643L94.8954 197.03H95.123L94.1919 197.372C91.149 198.443 87.9257 198.907 84.7044 198.738C81.5774 198.619 78.5002 197.917 75.6308 196.668C70.1573 194.323 65.6035 190.247 62.667 185.066C61.3157 182.673 60.3288 180.092 59.739 177.407C59.5775 176.763 59.4566 176.11 59.3769 175.451C59.2941 174.799 59.1596 174.157 59.1286 173.516C58.8486 169.833 59.2377 166.13 60.277 162.587C60.9304 160.457 61.837 158.414 62.9774 156.501C64.9081 153.185 67.5213 150.317 70.6439 148.087C73.0025 146.418 75.621 145.152 78.3932 144.34L80.0176 143.926C80.4956 143.815 80.9791 143.729 81.466 143.668C82.2209 143.528 82.9852 143.445 83.7525 143.419L85.17 143.367C85.3311 143.346 85.4936 143.335 85.6562 143.336Z" fill="#4CAF4F"/>
<path d="M91.5535 167.472H89.6395L85.501 161.655V157.836C85.501 157.836 82.542 157.65 82.8937 162.649C83.2455 167.648 82.8937 166.375 82.8937 166.375C82.8937 166.375 76.6136 166.375 76.0963 166.944C75.579 167.513 75.5479 173.578 75.4755 176.962C75.4359 177.778 75.6699 178.584 76.1404 179.251C76.6109 179.919 77.2909 180.41 78.0724 180.647C78.2915 180.707 78.5176 180.739 78.7449 180.74C80.3175 180.74 88.3152 179.467 88.3152 179.467H91.6156L91.5535 167.472Z" fill="#4CAF4F"/>
<path d="M97.0267 166.447L95.8473 179.529H92.5779V166.716L97.0267 166.447Z" fill="#4CAF4F"/>
<path d="M136.021 432.773V423.924L120.161 423.81L120.026 437.192L121.009 437.265C125.386 437.544 143.274 437.958 146.212 437.047C149.482 436.033 136.021 432.773 136.021 432.773Z" fill="#4CAF4F"/>
<path d="M146.585 436.22C146.585 436.365 140.646 436.489 133.331 436.489C126.017 436.489 120.078 436.365 120.078 436.22C120.078 436.075 126.017 435.95 133.331 435.95C140.646 435.95 146.585 436.075 146.585 436.22Z" fill="#263238"/>
<path d="M136.301 434.584C136.166 434.512 136.301 434.046 136.622 433.549C136.942 433.052 137.377 432.845 137.48 432.949C137.584 433.052 137.366 433.446 137.056 433.87C136.746 434.294 136.435 434.657 136.301 434.584Z" fill="#263238"/>
<path d="M137.315 435.164C137.17 435.164 137.242 434.584 137.553 434.036C137.863 433.487 138.277 433.156 138.391 433.239C138.505 433.322 138.318 433.787 138.029 434.274C137.739 434.76 137.449 435.216 137.315 435.164Z" fill="#263238"/>
<path d="M124.858 436.178C124.796 436.178 124.558 435.992 124.216 435.598C123.8 435.093 123.335 434.628 122.83 434.211C122.333 433.814 121.741 433.554 121.113 433.456C120.626 433.394 120.316 433.456 120.285 433.394C120.254 433.332 120.554 433.114 121.123 433.073C121.874 433.057 122.607 433.306 123.192 433.777C123.741 434.224 124.204 434.768 124.558 435.381C124.796 435.836 124.92 436.136 124.858 436.178Z" fill="#263238"/>
<path d="M136.353 432.918C136.425 433.042 136.156 433.353 135.701 433.519C135.246 433.684 134.842 433.622 134.821 433.519C134.801 433.415 135.121 433.198 135.515 433.052C135.908 432.907 136.27 432.794 136.353 432.918Z" fill="#263238"/>
<path d="M136.104 432.059C136.104 432.214 135.69 432.339 135.152 432.349C134.614 432.359 134.19 432.235 134.201 432.09C134.211 431.945 134.635 431.81 135.152 431.8C135.67 431.79 136.084 431.914 136.104 432.059Z" fill="#263238"/>
<path d="M175.078 432.773V423.924L159.218 423.81L159.083 437.058L160.066 437.13C164.443 437.41 182.342 437.958 185.269 437.047C188.539 436.033 175.078 432.773 175.078 432.773Z" fill="#4CAF4F"/>
<path d="M185.642 436.24C185.642 436.385 179.714 436.509 172.388 436.509C165.063 436.509 159.145 436.385 159.145 436.24C159.145 436.095 165.074 435.971 172.388 435.971C179.703 435.971 185.642 436.095 185.642 436.24Z" fill="#263238"/>
<path d="M175.358 434.584C175.234 434.512 175.358 434.046 175.678 433.549C175.999 433.052 176.434 432.845 176.537 432.949C176.641 433.052 176.423 433.446 176.113 433.87C175.803 434.294 175.492 434.657 175.358 434.584Z" fill="#263238"/>
<path d="M176.372 435.164C176.237 435.164 176.299 434.584 176.62 434.036C176.941 433.487 177.344 433.156 177.458 433.239C177.572 433.322 177.375 433.787 177.086 434.274C176.796 434.76 176.516 435.216 176.372 435.164Z" fill="#263238"/>
<path d="M163.915 436.178C163.853 436.178 163.625 435.992 163.273 435.598C162.857 435.093 162.392 434.628 161.887 434.211C161.39 433.814 160.798 433.554 160.169 433.456C159.694 433.394 159.373 433.456 159.342 433.394C159.311 433.332 159.611 433.114 160.18 433.073C160.931 433.057 161.663 433.306 162.249 433.777C162.801 434.221 163.264 434.765 163.615 435.381C163.853 435.836 163.977 436.136 163.915 436.178Z" fill="#263238"/>
<path d="M175.41 432.918C175.482 433.042 175.213 433.353 174.758 433.519C174.302 433.684 173.899 433.622 173.878 433.519C173.858 433.415 174.178 433.198 174.571 433.052C174.965 432.907 175.327 432.794 175.41 432.918Z" fill="#263238"/>
<path d="M175.182 432.059C175.182 432.214 174.768 432.339 174.23 432.349C173.692 432.359 173.278 432.235 173.289 432.09C173.299 431.945 173.713 431.81 174.23 431.8C174.747 431.79 175.182 431.914 175.182 432.059Z" fill="#263238"/>
<path d="M233.514 169.997C233.1 169.572 232.076 169.779 232.076 169.779C232.178 169.184 232.178 168.575 232.076 167.979C231.889 167.399 230.586 167.513 230.586 167.513C230.526 167.025 230.526 166.531 230.586 166.043C230.596 165.935 230.573 165.826 230.519 165.732C230.466 165.637 230.384 165.562 230.286 165.515C229.669 165.264 229.006 165.144 228.341 165.164C227.544 164.594 230.772 160.072 231.972 158.623C233.172 157.174 232.955 156.046 231.889 156.046C231.155 156.046 227.389 160.392 226.23 161.852C225.071 163.311 221.998 167.368 221.895 164.129C221.791 160.889 220.488 158.447 219.671 158.033C218.853 157.619 217.984 158.592 218.429 159.492C218.82 160.515 219.064 161.588 219.153 162.68C219.266 163.549 219.227 164.431 219.039 165.288C218.696 166.881 218.229 168.445 217.643 169.966H217.56C217.56 169.966 194.984 191.627 193.35 193.17C191.891 194.556 162.549 191.524 156.662 190.903C154.662 190.61 152.642 190.472 150.62 190.489C148.064 190.603 147.609 190.965 145.064 190.996C138.636 191.067 132.224 191.631 125.882 192.683C123.011 193.171 120.329 194.439 118.128 196.348C115.928 198.257 114.294 200.734 113.405 203.509C107.476 222.035 94.047 265.886 91.6777 290.518C89.8873 293.765 88.2711 297.106 86.8357 300.526C85.1699 305.059 85.5734 305.214 86.1321 305.318C87.6427 305.597 89.3601 297.462 90.0016 299.429C90.6431 301.395 86.7426 309.126 88.3255 309.354C90.3948 309.644 92.0398 301.074 92.2364 300.391C92.433 299.708 93.4572 299.925 93.271 300.567C92.971 301.478 90.0637 311.134 92.0915 311.445C93.2089 311.61 93.3331 309.571 93.3331 309.571C93.3331 309.571 95.4023 300.329 96.3438 300.515C97.2853 300.702 96.2818 306.156 95.8058 307.977C95.3299 309.799 95.9921 310.72 96.9646 310.275C97.6268 309.965 99.2097 304.428 99.6443 302.627C100.079 300.826 101.165 295.837 102.624 298.725C104.083 301.612 106.297 303.289 107.207 303.33C107.413 303.307 107.606 303.222 107.763 303.088C107.919 302.953 108.032 302.775 108.087 302.576C108.141 302.376 108.135 302.165 108.069 301.97C108.002 301.774 107.879 301.603 107.714 301.478C106.931 300.713 106.259 299.842 105.717 298.891C105.235 298.149 104.885 297.33 104.683 296.469C104.266 294.752 104.023 292.997 103.959 291.232L103.793 290.197C106.111 278.719 112.784 245.031 122.416 223.514L126.369 231.649L128.086 237.673L117.554 263.681L162.477 263.091L155.772 237.279L163.915 210.371C172.719 210.567 195.326 210.898 199.092 209.191C203.831 207.121 228.341 176.155 228.341 176.155C229.938 174.913 231.468 173.586 232.924 172.181C232.924 172.181 234.414 170.928 233.514 169.997Z" fill="#FFBE9D"/>
<path d="M115.577 244.462C116.881 240.012 123.575 218.009 123.575 218.009C123.575 218.009 126.865 235.945 125.996 238.108C125.197 239.959 124.252 241.745 123.172 243.448C115.577 255.009 116.571 260.794 116.571 260.794L162.456 259.397C162.56 252.98 158.762 238.056 157.976 235.676C157.19 233.295 159.807 225.502 159.807 225.502C159.807 225.502 164.981 220.234 164.794 217.522C164.696 215.087 164.395 212.663 163.894 210.278L191.829 211.313L190.949 192.373L150.827 188.357C149.43 192.3 136.797 190.365 136.797 190.365C123.161 190.82 122.313 193.325 116.643 197.734C110.973 202.143 101.589 239.981 101.589 239.981L115.577 244.462Z" fill="#4CAF4F"/>
<path d="M142.705 239.981C141.91 240.123 141.1 240.165 140.294 240.105C138.794 240.105 136.735 240.002 134.47 239.774C132.204 239.546 130.155 239.225 128.696 238.936C127.892 238.832 127.103 238.63 126.348 238.335C127.157 238.336 127.964 238.412 128.758 238.563C130.228 238.749 132.266 239.008 134.521 239.236C136.777 239.464 138.825 239.619 140.305 239.722C141.111 239.732 141.915 239.819 142.705 239.981Z" fill="#263238"/>
<path d="M145.85 236.079C145.055 236.469 144.214 236.757 143.347 236.938C139.219 238.023 134.96 238.528 130.693 238.439C129.81 238.467 128.927 238.384 128.065 238.19C128.937 238.08 129.815 238.035 130.693 238.056C132.318 238.004 134.552 237.89 137.015 237.6C139.477 237.311 141.671 236.897 143.222 236.565C144.084 236.335 144.963 236.173 145.85 236.079Z" fill="#263238"/>
<path d="M161.287 218.671C161.266 219.46 161.158 220.245 160.966 221.01C160.697 222.449 160.283 224.415 159.756 226.568C159.228 228.721 158.721 230.708 158.266 232.053C158.083 232.823 157.812 233.57 157.459 234.278C157.517 233.492 157.662 232.714 157.893 231.96C158.287 230.346 158.731 228.483 159.228 226.444C159.725 224.405 160.201 222.542 160.594 220.927C160.734 220.15 160.967 219.393 161.287 218.671Z" fill="#263238"/>
<path d="M116.064 241.823C113.67 241.453 111.308 240.903 108.997 240.178C106.636 239.625 104.319 238.899 102.065 238.004C104.458 238.38 106.819 238.93 109.132 239.65C111.493 240.2 113.811 240.926 116.064 241.823Z" fill="#263238"/>
<path d="M164.391 210.05C164 210.117 163.602 210.117 163.211 210.05C162.131 209.939 161.069 209.685 160.056 209.294C158.363 208.658 156.822 207.675 155.532 206.408C154.242 205.14 153.232 203.617 152.565 201.936C151.828 200.086 151.514 198.096 151.644 196.109C151.69 194.471 152.18 192.875 153.062 191.493C153.682 190.562 154.608 189.878 155.679 189.558C155.966 189.479 156.262 189.44 156.559 189.444C156.766 189.444 156.869 189.444 156.869 189.444C156.869 189.444 156.435 189.444 155.741 189.723C154.758 190.087 153.924 190.768 153.372 191.659C151.965 193.874 151.572 197.92 153.072 201.698C153.77 203.479 154.863 205.079 156.269 206.376C157.421 207.437 158.747 208.292 160.19 208.901C161.544 209.436 162.953 209.822 164.391 210.05Z" fill="#263238"/>
<path d="M188.507 210.94C188.249 207.766 188.166 204.581 188.259 201.398C188.178 198.218 188.275 195.035 188.549 191.866C188.807 195.036 188.89 198.218 188.797 201.398C188.884 204.582 188.787 207.768 188.507 210.94Z" fill="#263238"/>
<path d="M150.558 189.516C150.672 187.208 150.91 184.6 150.91 184.6C150.91 184.6 156.621 183.969 156.962 178.07C157.304 172.171 156.962 158.561 156.962 158.561L146.616 153.262L135.132 162.297L136.901 191.793L147.433 192.466C148.238 192.488 149.019 192.19 149.605 191.637C150.191 191.084 150.534 190.322 150.558 189.516Z" fill="#FFBE9D"/>
<path d="M151.582 173.402C151.582 173.402 151.582 173.516 151.489 173.651C151.412 173.748 151.312 173.825 151.199 173.876C151.085 173.926 150.961 173.949 150.837 173.94C150.175 173.94 149.534 173.174 149.306 172.284C149.198 171.853 149.198 171.401 149.306 170.97C149.327 170.782 149.395 170.602 149.504 170.446C149.612 170.291 149.757 170.165 149.927 170.08C150.066 170.022 150.222 170.022 150.361 170.08C150.464 170.131 150.548 170.215 150.599 170.318C150.672 170.494 150.599 170.608 150.599 170.597C150.599 170.587 150.599 170.494 150.496 170.39C150.442 170.316 150.362 170.265 150.272 170.246C150.183 170.227 150.089 170.241 150.01 170.287C149.883 170.364 149.777 170.471 149.703 170.6C149.629 170.728 149.588 170.873 149.585 171.022C149.498 171.407 149.498 171.806 149.585 172.191C149.792 172.998 150.351 173.651 150.848 173.713C150.945 173.726 151.044 173.719 151.138 173.692C151.232 173.665 151.32 173.62 151.396 173.557C151.52 173.475 151.561 173.392 151.582 173.402Z" fill="#EB996E"/>
<path d="M160.511 155.373C159.714 152.661 156.828 151.316 154.2 150.571C150.196 149.432 145.871 148.935 141.96 150.374C138.049 151.813 133.352 154.338 133.352 158.654C131.045 158.467 129.721 160.486 128.81 162.99C128.228 164.516 127.879 166.121 127.776 167.751C127.486 173.402 125.903 181.205 122.24 185.345C120.171 187.653 117.305 189.247 116.126 192.124C115.091 194.619 115.629 197.579 114.667 200.104C113.808 202.329 111.915 203.912 110.528 205.848C109.116 208.043 108.285 210.562 108.113 213.167C107.941 215.772 108.434 218.379 109.546 220.741C110.665 223.043 112.242 225.092 114.179 226.765C116.116 228.437 118.373 229.698 120.813 230.469C125.645 231.94 130.799 231.991 135.659 230.614C139.307 229.742 142.71 228.054 145.612 225.678C148.582 223.252 150.622 219.873 151.386 216.115C152.12 211.892 150.941 207.597 150.061 203.395C147.309 190.116 148.096 189.423 151.572 177.097C151.655 176.879 151.696 176.652 151.758 176.434C151.82 176.217 151.851 176.113 151.893 175.948C151.991 175.461 152.043 174.965 152.048 174.468C151.54 174.657 150.989 174.697 150.459 174.583C149.93 174.469 149.443 174.207 149.058 173.826C148.671 173.42 148.402 172.917 148.278 172.371C148.154 171.824 148.18 171.254 148.354 170.721C148.598 170.139 148.962 169.614 149.422 169.18C149.882 168.747 150.427 168.415 151.023 168.206C152.172 167.73 153.403 167.482 154.531 166.954C156.921 165.816 158.576 163.456 159.704 160.982C160.631 159.268 160.917 157.279 160.511 155.373Z" fill="#263238"/>
<path d="M151.996 173.681C152.215 174.004 152.395 174.352 152.534 174.716C152.844 175.368 153.258 176.289 153.713 177.356L153.796 177.552H153.579L152.544 177.645C151.83 177.645 151.23 177.78 150.527 177.769C150.466 177.756 150.409 177.727 150.362 177.685C150.315 177.643 150.279 177.591 150.258 177.531C150.227 177.437 150.227 177.336 150.258 177.242C150.282 177.102 150.313 176.964 150.351 176.828L150.537 176.093C150.631 175.603 150.776 175.124 150.972 174.665C150.952 175.164 150.88 175.66 150.754 176.145L150.61 176.879C150.558 177.128 150.465 177.511 150.61 177.48C151.127 177.48 151.861 177.366 152.544 177.324L153.579 177.231L153.444 177.459C153 176.424 152.627 175.451 152.41 174.778C152.219 174.435 152.08 174.065 151.996 173.681Z" fill="#4CAF4F"/>
<path d="M116.571 260.794L162.456 259.397L182.424 337.37L178.751 426.811H154.489L157.459 339.275L139.715 284.991L142.446 430.279L117.926 430.641L115.35 294.078C115.236 290.28 113.994 281.721 114.46 277.953L116.571 260.794Z" fill="#263238"/>
<path d="M145.819 286.099C145.068 286.146 144.314 286.101 143.574 285.964C142.188 285.799 140.294 285.509 138.215 285.095C136.135 284.681 134.273 284.205 132.928 283.822C132.209 283.664 131.514 283.413 130.859 283.077C130.859 282.921 134.232 283.729 138.37 284.567C142.509 285.405 145.84 285.943 145.819 286.099Z" fill="#455A64"/>
<path d="M178.503 421.906C178.503 422.051 173.009 422.175 166.232 422.175C159.456 422.175 153.951 422.051 153.951 421.906C153.951 421.761 159.445 421.637 166.232 421.637C173.019 421.637 178.503 421.751 178.503 421.906Z" fill="#455A64"/>
<path d="M142.229 426.501C142.229 426.657 136.891 426.771 130.31 426.771C123.73 426.771 118.402 426.657 118.402 426.501C118.402 426.346 123.741 426.232 130.31 426.232C136.88 426.232 142.229 426.356 142.229 426.501Z" fill="#455A64"/>
<path d="M139.063 426.129C138.918 426.129 138.277 394.386 137.625 355.234C136.973 316.081 136.591 284.318 136.725 284.318C136.86 284.318 137.522 316.05 138.163 355.223C138.805 394.397 139.218 426.129 139.063 426.129Z" fill="#455A64"/>
<path d="M175.244 421.906C175.233 421.765 175.233 421.623 175.244 421.482V420.24C175.244 419.122 175.327 417.518 175.389 415.479C175.534 411.339 175.741 405.326 175.999 397.957C176.558 383.136 177.344 362.706 178.203 340.154C178.203 339.937 178.203 339.73 178.203 339.544V339.616C172.771 317.882 167.857 298.156 164.287 283.884L160.149 267.004C159.673 265.027 159.311 263.485 159.052 262.408C158.928 261.901 158.845 261.508 158.773 261.208C158.733 261.073 158.708 260.934 158.7 260.794C158.754 260.924 158.796 261.059 158.825 261.198C158.907 261.487 159.011 261.881 159.156 262.377C159.435 263.412 159.839 264.985 160.356 266.952C161.39 270.947 162.849 276.701 164.67 283.791C168.271 298.052 173.237 317.727 178.741 339.492V339.565C178.741 339.751 178.741 339.968 178.741 340.175C177.82 362.727 176.982 383.147 176.372 397.967C176.051 405.347 175.782 411.318 175.596 415.479C175.492 417.549 175.41 419.122 175.358 420.24C175.358 420.767 175.296 421.181 175.285 421.482C175.287 421.624 175.273 421.766 175.244 421.906Z" fill="#455A64"/>
<path d="M167.329 337.722C165.586 338.295 163.791 338.694 161.97 338.912C159.735 339.295 157.831 339.564 156.973 339.606V339.399C157.252 339.482 157.397 339.533 157.397 339.575C157.397 339.616 157.221 339.575 156.931 339.575H156.31L156.931 339.388C157.738 339.15 159.642 338.757 161.877 338.354C163.669 337.965 165.495 337.753 167.329 337.722Z" fill="#455A64"/>
<path d="M166.905 340.694C165.291 340.768 163.674 340.695 162.073 340.476C160.457 340.443 158.847 340.266 157.262 339.948C160.496 339.684 163.75 339.935 166.905 340.694Z" fill="#455A64"/>
<path opacity="0.2" d="M116.374 262.439C116.917 263.137 117.602 263.713 118.383 264.128C119.164 264.544 120.023 264.79 120.906 264.851C122.754 265.07 124.623 265.035 126.462 264.747C138.308 263.433 150.858 262.222 162.456 259.397C147.444 260.235 131.583 259.955 116.571 260.794L116.415 262.077" fill="black"/>
<g opacity="0.2">
<path d="M131.842 283.604L140.305 316.454L139.715 284.991L131.842 283.604Z" fill="black"/>
</g>
</svg>
