<svg width="151" height="48" viewBox="0 0 151 48" fill="none" xmlns="http://www.w3.org/2000/svg">
<rect x="0.5" width="150" height="48" rx="4" fill="#4CAF4F"/>
<path d="M34.1122 30V18.3636H35.5213V28.75H40.9304V30H34.1122ZM46.5895 30.1818C45.7486 30.1818 45.0232 29.9962 44.4134 29.625C43.8073 29.25 43.3395 28.7273 43.0099 28.0568C42.6842 27.3826 42.5213 26.5985 42.5213 25.7045C42.5213 24.8106 42.6842 24.0227 43.0099 23.3409C43.3395 22.6553 43.7978 22.1212 44.3849 21.7386C44.9759 21.3523 45.6652 21.1591 46.4531 21.1591C46.9077 21.1591 47.3565 21.2348 47.7997 21.3864C48.2429 21.5379 48.6463 21.7841 49.0099 22.125C49.3736 22.4621 49.6634 22.9091 49.8793 23.4659C50.0952 24.0227 50.2031 24.7083 50.2031 25.5227V26.0909H43.4759V24.9318H48.8395C48.8395 24.4394 48.741 24 48.544 23.6136C48.3509 23.2273 48.0743 22.9223 47.7145 22.6989C47.3584 22.4754 46.938 22.3636 46.4531 22.3636C45.919 22.3636 45.4569 22.4962 45.0668 22.7614C44.6804 23.0227 44.383 23.3636 44.1747 23.7841C43.9664 24.2045 43.8622 24.6553 43.8622 25.1364V25.9091C43.8622 26.5682 43.9759 27.1269 44.2031 27.5852C44.4342 28.0398 44.7543 28.3864 45.1634 28.625C45.5724 28.8598 46.0478 28.9773 46.5895 28.9773C46.9418 28.9773 47.2599 28.928 47.544 28.8295C47.8319 28.7273 48.08 28.5758 48.2884 28.375C48.4967 28.1705 48.6577 27.9167 48.7713 27.6136L50.0668 27.9773C49.9304 28.4167 49.7012 28.803 49.3793 29.1364C49.0573 29.4659 48.6596 29.7235 48.1861 29.9091C47.7126 30.0909 47.1804 30.1818 46.5895 30.1818ZM54.8111 30.2045C54.258 30.2045 53.7562 30.1004 53.3054 29.892C52.8546 29.6799 52.4967 29.375 52.2315 28.9773C51.9664 28.5758 51.8338 28.0909 51.8338 27.5227C51.8338 27.0227 51.9323 26.6174 52.1293 26.3068C52.3262 25.9924 52.5895 25.7462 52.919 25.5682C53.2486 25.3902 53.6122 25.2576 54.0099 25.1705C54.4115 25.0795 54.8149 25.0076 55.2202 24.9545C55.7505 24.8864 56.1804 24.8352 56.5099 24.8011C56.8433 24.7633 57.0857 24.7008 57.2372 24.6136C57.3925 24.5265 57.4702 24.375 57.4702 24.1591V24.1136C57.4702 23.553 57.3168 23.1174 57.0099 22.8068C56.7069 22.4962 56.2467 22.3409 55.6293 22.3409C54.9891 22.3409 54.4872 22.4811 54.1236 22.7614C53.7599 23.0417 53.5043 23.3409 53.3565 23.6591L52.0838 23.2045C52.3111 22.6742 52.6141 22.2614 52.9929 21.9659C53.3755 21.6667 53.7921 21.4583 54.2429 21.3409C54.6974 21.2197 55.1444 21.1591 55.5838 21.1591C55.8641 21.1591 56.1861 21.1932 56.5497 21.2614C56.9171 21.3258 57.2713 21.4602 57.6122 21.6648C57.9569 21.8693 58.2429 22.178 58.4702 22.5909C58.6974 23.0038 58.8111 23.5568 58.8111 24.25V30H57.4702V28.8182H57.402C57.3111 29.0076 57.1596 29.2102 56.9474 29.4261C56.7353 29.642 56.4531 29.8258 56.1009 29.9773C55.7486 30.1288 55.3187 30.2045 54.8111 30.2045ZM55.0156 29C55.5459 29 55.9929 28.8958 56.3565 28.6875C56.724 28.4792 57.0005 28.2102 57.1861 27.8807C57.3755 27.5511 57.4702 27.2045 57.4702 26.8409V25.6136C57.4134 25.6818 57.2884 25.7443 57.0952 25.8011C56.9058 25.8542 56.6861 25.9015 56.4361 25.9432C56.1899 25.9811 55.9493 26.0152 55.7145 26.0455C55.4834 26.072 55.2959 26.0947 55.152 26.1136C54.8035 26.1591 54.4777 26.233 54.1747 26.3352C53.8755 26.4337 53.633 26.5833 53.4474 26.7841C53.2656 26.9811 53.1747 27.25 53.1747 27.5909C53.1747 28.0568 53.3471 28.4091 53.6918 28.6477C54.0402 28.8826 54.4815 29 55.0156 29ZM61.2585 30V21.2727H62.554V22.5909H62.6449C62.804 22.1591 63.0919 21.8087 63.5085 21.5398C63.9252 21.2708 64.3949 21.1364 64.9176 21.1364C65.0161 21.1364 65.1392 21.1383 65.2869 21.142C65.4347 21.1458 65.5464 21.1515 65.6222 21.1591V22.5227C65.5767 22.5114 65.4725 22.4943 65.3097 22.4716C65.1506 22.4451 64.982 22.4318 64.804 22.4318C64.3797 22.4318 64.0009 22.5208 63.6676 22.6989C63.3381 22.8731 63.0767 23.1155 62.8835 23.4261C62.6941 23.733 62.5994 24.0833 62.5994 24.4773V30H61.2585ZM68.5526 24.75V30H67.2116V21.2727H68.5071V22.6364H68.6207C68.8253 22.1932 69.1359 21.8371 69.5526 21.5682C69.9692 21.2955 70.5071 21.1591 71.1662 21.1591C71.7571 21.1591 72.2741 21.2803 72.7173 21.5227C73.1605 21.7614 73.5052 22.125 73.7514 22.6136C73.9976 23.0985 74.1207 23.7121 74.1207 24.4545V30H72.7798V24.5455C72.7798 23.8598 72.6018 23.3258 72.2457 22.9432C71.8897 22.5568 71.401 22.3636 70.7798 22.3636C70.3518 22.3636 69.9692 22.4564 69.6321 22.642C69.2988 22.8277 69.0355 23.0985 68.8423 23.4545C68.6491 23.8106 68.5526 24.2424 68.5526 24.75ZM81.071 30V21.2727H82.3665V22.6364H82.4801C82.6619 22.1705 82.9555 21.8087 83.3608 21.5511C83.7661 21.2898 84.2528 21.1591 84.821 21.1591C85.3968 21.1591 85.8759 21.2898 86.2585 21.5511C86.6449 21.8087 86.946 22.1705 87.1619 22.6364H87.2528C87.4763 22.1856 87.8116 21.8277 88.2585 21.5625C88.7055 21.2936 89.2415 21.1591 89.8665 21.1591C90.6468 21.1591 91.285 21.4034 91.7812 21.892C92.2775 22.3769 92.5256 23.1326 92.5256 24.1591V30H91.1847V24.1591C91.1847 23.5152 91.0085 23.0549 90.6562 22.7784C90.304 22.5019 89.8892 22.3636 89.4119 22.3636C88.7983 22.3636 88.3229 22.5492 87.9858 22.9205C87.6487 23.2879 87.4801 23.7538 87.4801 24.3182V30H86.1165V24.0227C86.1165 23.5265 85.9555 23.1269 85.6335 22.8239C85.3116 22.517 84.8968 22.3636 84.3892 22.3636C84.0407 22.3636 83.715 22.4564 83.4119 22.642C83.1127 22.8277 82.8703 23.0852 82.6847 23.4148C82.5028 23.7405 82.4119 24.1174 82.4119 24.5455V30H81.071ZM98.5227 30.1818C97.7348 30.1818 97.0436 29.9943 96.4489 29.6193C95.858 29.2443 95.3958 28.7197 95.0625 28.0455C94.733 27.3712 94.5682 26.5833 94.5682 25.6818C94.5682 24.7727 94.733 23.9792 95.0625 23.3011C95.3958 22.6231 95.858 22.0966 96.4489 21.7216C97.0436 21.3466 97.7348 21.1591 98.5227 21.1591C99.3106 21.1591 100 21.3466 100.591 21.7216C101.186 22.0966 101.648 22.6231 101.977 23.3011C102.311 23.9792 102.477 24.7727 102.477 25.6818C102.477 26.5833 102.311 27.3712 101.977 28.0455C101.648 28.7197 101.186 29.2443 100.591 29.6193C100 29.9943 99.3106 30.1818 98.5227 30.1818ZM98.5227 28.9773C99.1212 28.9773 99.6136 28.8239 100 28.517C100.386 28.2102 100.672 27.8068 100.858 27.3068C101.044 26.8068 101.136 26.2652 101.136 25.6818C101.136 25.0985 101.044 24.5549 100.858 24.0511C100.672 23.5473 100.386 23.1402 100 22.8295C99.6136 22.5189 99.1212 22.3636 98.5227 22.3636C97.9242 22.3636 97.4318 22.5189 97.0455 22.8295C96.6591 23.1402 96.3731 23.5473 96.1875 24.0511C96.0019 24.5549 95.9091 25.0985 95.9091 25.6818C95.9091 26.2652 96.0019 26.8068 96.1875 27.3068C96.3731 27.8068 96.6591 28.2102 97.0455 28.517C97.4318 28.8239 97.9242 28.9773 98.5227 28.9773ZM104.524 30V21.2727H105.82V22.5909H105.911C106.07 22.1591 106.357 21.8087 106.774 21.5398C107.191 21.2708 107.661 21.1364 108.183 21.1364C108.282 21.1364 108.405 21.1383 108.553 21.142C108.7 21.1458 108.812 21.1515 108.888 21.1591V22.5227C108.842 22.5114 108.738 22.4943 108.575 22.4716C108.416 22.4451 108.248 22.4318 108.07 22.4318C107.645 22.4318 107.267 22.5208 106.933 22.6989C106.604 22.8731 106.342 23.1155 106.149 23.4261C105.96 23.733 105.865 24.0833 105.865 24.4773V30H104.524ZM113.871 30.1818C113.03 30.1818 112.304 29.9962 111.695 29.625C111.089 29.25 110.621 28.7273 110.291 28.0568C109.965 27.3826 109.803 26.5985 109.803 25.7045C109.803 24.8106 109.965 24.0227 110.291 23.3409C110.621 22.6553 111.079 22.1212 111.666 21.7386C112.257 21.3523 112.946 21.1591 113.734 21.1591C114.189 21.1591 114.638 21.2348 115.081 21.3864C115.524 21.5379 115.928 21.7841 116.291 22.125C116.655 22.4621 116.945 22.9091 117.161 23.4659C117.376 24.0227 117.484 24.7083 117.484 25.5227V26.0909H110.757V24.9318H116.121C116.121 24.4394 116.022 24 115.825 23.6136C115.632 23.2273 115.356 22.9223 114.996 22.6989C114.64 22.4754 114.219 22.3636 113.734 22.3636C113.2 22.3636 112.738 22.4962 112.348 22.7614C111.962 23.0227 111.664 23.3636 111.456 23.7841C111.248 24.2045 111.143 24.6553 111.143 25.1364V25.9091C111.143 26.5682 111.257 27.1269 111.484 27.5852C111.715 28.0398 112.036 28.3864 112.445 28.625C112.854 28.8598 113.329 28.9773 113.871 28.9773C114.223 28.9773 114.541 28.928 114.825 28.8295C115.113 28.7273 115.361 28.5758 115.57 28.375C115.778 28.1705 115.939 27.9167 116.053 27.6136L117.348 27.9773C117.212 28.4167 116.982 28.803 116.661 29.1364C116.339 29.4659 115.941 29.7235 115.467 29.9091C114.994 30.0909 114.462 30.1818 113.871 30.1818Z" fill="white"/>
</svg>
