<svg width="47" height="24" viewBox="0 0 47 24" fill="none" xmlns="http://www.w3.org/2000/svg">
<path d="M1.58523 19V5.90909H3.17045V17.5938H9.25568V19H1.58523ZM15.4943 19.2045C14.608 19.2045 13.8303 18.9936 13.1612 18.5717C12.4964 18.1499 11.9766 17.5597 11.6016 16.8011C11.2308 16.0426 11.0455 15.1562 11.0455 14.142C11.0455 13.1193 11.2308 12.2266 11.6016 11.4638C11.9766 10.701 12.4964 10.1087 13.1612 9.68679C13.8303 9.26491 14.608 9.05398 15.4943 9.05398C16.3807 9.05398 17.1563 9.26491 17.821 9.68679C18.4901 10.1087 19.0099 10.701 19.3807 11.4638C19.7557 12.2266 19.9432 13.1193 19.9432 14.142C19.9432 15.1562 19.7557 16.0426 19.3807 16.8011C19.0099 17.5597 18.4901 18.1499 17.821 18.5717C17.1563 18.9936 16.3807 19.2045 15.4943 19.2045ZM15.4943 17.8494C16.1676 17.8494 16.7216 17.6768 17.1562 17.3317C17.5909 16.9865 17.9126 16.5327 18.1214 15.9702C18.3303 15.4077 18.4347 14.7983 18.4347 14.142C18.4347 13.4858 18.3303 12.8743 18.1214 12.3075C17.9126 11.7408 17.5909 11.2827 17.1562 10.9332C16.7216 10.5838 16.1676 10.4091 15.4943 10.4091C14.821 10.4091 14.267 10.5838 13.8324 10.9332C13.3977 11.2827 13.076 11.7408 12.8672 12.3075C12.6584 12.8743 12.554 13.4858 12.554 14.142C12.554 14.7983 12.6584 15.4077 12.8672 15.9702C13.076 16.5327 13.3977 16.9865 13.8324 17.3317C14.267 17.6768 14.821 17.8494 15.4943 17.8494ZM26.209 22.8864C25.4803 22.8864 24.8539 22.7926 24.3297 22.6051C23.8056 22.4219 23.3688 22.179 23.0194 21.8764C22.6742 21.5781 22.3993 21.2585 22.1948 20.9176L23.3965 20.0739C23.5328 20.2528 23.7054 20.4574 23.9142 20.6875C24.123 20.9219 24.4086 21.1243 24.7708 21.2947C25.1373 21.4695 25.6167 21.5568 26.209 21.5568C27.0016 21.5568 27.6557 21.3651 28.1713 20.9815C28.687 20.598 28.9448 19.9972 28.9448 19.179V17.1847H28.8169C28.7061 17.3636 28.5485 17.5852 28.3439 17.8494C28.1436 18.1094 27.8539 18.3416 27.4746 18.5462C27.0996 18.7464 26.5925 18.8466 25.9533 18.8466C25.1607 18.8466 24.449 18.6591 23.8184 18.2841C23.1919 17.9091 22.6955 17.3636 22.329 16.6477C21.9668 15.9318 21.7857 15.0625 21.7857 14.0398C21.7857 13.0341 21.9625 12.1584 22.3162 11.4126C22.6699 10.6626 23.1621 10.0831 23.7928 9.67401C24.4235 9.26065 25.1522 9.05398 25.9789 9.05398C26.6181 9.05398 27.1252 9.16051 27.5002 9.37358C27.8794 9.58239 28.1692 9.82102 28.3695 10.0895C28.574 10.3537 28.7317 10.571 28.8425 10.7415H28.9959V9.18182H30.4533V19.2812C30.4533 20.125 30.2615 20.8111 29.878 21.3395C29.4988 21.8722 28.9874 22.2621 28.3439 22.5092C27.7047 22.7607 26.9931 22.8864 26.209 22.8864ZM26.1578 17.4915C26.763 17.4915 27.2743 17.353 27.6919 17.076C28.1096 16.799 28.427 16.4006 28.6444 15.8807C28.8617 15.3608 28.9703 14.7386 28.9703 14.0142C28.9703 13.3068 28.8638 12.6825 28.6507 12.1413C28.4377 11.6001 28.1223 11.1761 27.7047 10.8693C27.2871 10.5625 26.7715 10.4091 26.1578 10.4091C25.5186 10.4091 24.986 10.571 24.5598 10.8949C24.138 11.2187 23.8205 11.6534 23.6074 12.1989C23.3986 12.7443 23.2942 13.3494 23.2942 14.0142C23.2942 14.696 23.4007 15.299 23.6138 15.8232C23.8311 16.343 24.1507 16.7521 24.5726 17.0504C24.9988 17.3445 25.5272 17.4915 26.1578 17.4915ZM33.2147 19V9.18182H34.7232V19H33.2147ZM33.9817 7.54545C33.6877 7.54545 33.4341 7.44531 33.2211 7.24503C33.0123 7.04474 32.9078 6.80398 32.9078 6.52273C32.9078 6.24148 33.0123 6.00071 33.2211 5.80043C33.4341 5.60014 33.6877 5.5 33.9817 5.5C34.2757 5.5 34.5272 5.60014 34.736 5.80043C34.949 6.00071 35.0556 6.24148 35.0556 6.52273C35.0556 6.80398 34.949 7.04474 34.736 7.24503C34.5272 7.44531 34.2757 7.54545 33.9817 7.54545ZM38.9947 13.0938V19H37.4862V9.18182H38.9435V10.7159H39.0714C39.3015 10.2173 39.6509 9.81676 40.1197 9.5142C40.5884 9.20739 41.1935 9.05398 41.935 9.05398C42.5998 9.05398 43.1815 9.19034 43.68 9.46307C44.1786 9.73153 44.5664 10.1406 44.8434 10.6903C45.1204 11.2358 45.2589 11.9261 45.2589 12.7614V19H43.7504V12.8636C43.7504 12.0923 43.5501 11.4915 43.1495 11.0611C42.7489 10.6264 42.1992 10.4091 41.5004 10.4091C41.0188 10.4091 40.5884 10.5135 40.2092 10.7223C39.8342 10.9311 39.538 11.2358 39.3207 11.6364C39.1033 12.0369 38.9947 12.5227 38.9947 13.0938Z" fill="#4CAF4F"/>
</svg>
