<svg width="49" height="48" viewBox="0 0 49 48" fill="none" xmlns="http://www.w3.org/2000/svg">
<circle cx="6.80851" cy="6.80851" r="6.80851" transform="matrix(-1 0 0 1 31.7341 9.99988)" stroke="#4CAF4F" stroke-width="3"/>
<path d="M13.0107 33.7187C13.0107 32.2543 13.9313 30.948 15.3105 30.4554V30.4554C21.5283 28.2348 28.323 28.2348 34.5408 30.4554V30.4554C35.9199 30.948 36.8405 32.2543 36.8405 33.7187V35.9579C36.8405 37.9791 35.0504 39.5316 33.0495 39.2458L32.3824 39.1505C27.4363 38.4439 22.4149 38.4439 17.4688 39.1505L16.8017 39.2458C14.8009 39.5316 13.0107 37.9791 13.0107 35.9579V33.7187Z" stroke="#4CAF4F" stroke-width="3"/>
<path d="M35.1382 23.8054C38.0927 23.8054 40.4878 21.4103 40.4878 18.4558C40.4878 15.5013 38.0927 13.1063 35.1382 13.1063" stroke="#4CAF4F" stroke-width="3" stroke-linecap="round"/>
<path d="M40.9971 36.01L41.5213 36.0848C43.0934 36.3094 44.4999 35.0895 44.4999 33.5015V31.7421C44.4999 30.5915 43.7766 29.5651 42.693 29.1781C41.6121 28.7921 40.509 28.4914 39.3936 28.2762" stroke="#4CAF4F" stroke-width="3" stroke-linecap="round"/>
<path d="M13.8618 23.8054C10.9073 23.8054 8.51221 21.4103 8.51221 18.4558C8.51221 15.5013 10.9073 13.1063 13.8618 13.1063" stroke="#4CAF4F" stroke-width="3" stroke-linecap="round"/>
<path d="M8.00285 36.01L7.4787 36.0848C5.9066 36.3094 4.50006 35.0895 4.50006 33.5015V31.7421C4.50006 30.5915 5.22339 29.5651 6.30699 29.1781C7.38789 28.7921 8.49098 28.4914 9.60645 28.2762" stroke="#4CAF4F" stroke-width="3" stroke-linecap="round"/>
</svg>
