<svg width="127" height="52" viewBox="0 0 127 52" fill="none" xmlns="http://www.w3.org/2000/svg">
<rect width="127" height="52" rx="4" fill="#4CAF4F"/>
<path d="M33.7372 32V20.3636H37.669C38.5781 20.3636 39.3243 20.5189 39.9077 20.8295C40.491 21.1364 40.9228 21.5587 41.2031 22.0966C41.4834 22.6345 41.6236 23.2462 41.6236 23.9318C41.6236 24.6174 41.4834 25.2254 41.2031 25.7557C40.9228 26.286 40.4929 26.7027 39.9134 27.0057C39.3338 27.3049 38.5933 27.4545 37.6918 27.4545H34.5099V26.1818H37.6463C38.2675 26.1818 38.7675 26.0909 39.1463 25.9091C39.5289 25.7273 39.8054 25.4697 39.9759 25.1364C40.1501 24.7992 40.2372 24.3977 40.2372 23.9318C40.2372 23.4659 40.1501 23.0587 39.9759 22.7102C39.8016 22.3617 39.5232 22.0928 39.1406 21.9034C38.758 21.7102 38.2524 21.6136 37.6236 21.6136H35.1463V32H33.7372ZM39.2145 26.7727L42.0781 32H40.4418L37.6236 26.7727H39.2145ZM47.3551 32.1818C46.5142 32.1818 45.7888 31.9962 45.179 31.625C44.5729 31.25 44.1051 30.7273 43.7756 30.0568C43.4498 29.3826 43.2869 28.5985 43.2869 27.7045C43.2869 26.8106 43.4498 26.0227 43.7756 25.3409C44.1051 24.6553 44.5634 24.1212 45.1506 23.7386C45.7415 23.3523 46.4309 23.1591 47.2188 23.1591C47.6733 23.1591 48.1222 23.2348 48.5653 23.3864C49.0085 23.5379 49.4119 23.7841 49.7756 24.125C50.1392 24.4621 50.429 24.9091 50.6449 25.4659C50.8608 26.0227 50.9688 26.7083 50.9688 27.5227V28.0909H44.2415V26.9318H49.6051C49.6051 26.4394 49.5066 26 49.3097 25.6136C49.1165 25.2273 48.84 24.9223 48.4801 24.6989C48.1241 24.4754 47.7036 24.3636 47.2188 24.3636C46.6847 24.3636 46.2225 24.4962 45.8324 24.7614C45.446 25.0227 45.1487 25.3636 44.9403 25.7841C44.732 26.2045 44.6278 26.6553 44.6278 27.1364V27.9091C44.6278 28.5682 44.7415 29.1269 44.9688 29.5852C45.1998 30.0398 45.5199 30.3864 45.929 30.625C46.3381 30.8598 46.8134 30.9773 47.3551 30.9773C47.7074 30.9773 48.0256 30.928 48.3097 30.8295C48.5975 30.7273 48.8456 30.5758 49.054 30.375C49.2623 30.1705 49.4233 29.9167 49.5369 29.6136L50.8324 29.9773C50.696 30.4167 50.4669 30.803 50.1449 31.1364C49.8229 31.4659 49.4252 31.7235 48.9517 31.9091C48.4782 32.0909 47.946 32.1818 47.3551 32.1818ZM56.5312 35.4545C55.8835 35.4545 55.3267 35.3712 54.8608 35.2045C54.3949 35.0417 54.0066 34.8258 53.696 34.5568C53.3892 34.2917 53.1449 34.0076 52.9631 33.7045L54.0312 32.9545C54.1525 33.1136 54.3059 33.2955 54.4915 33.5C54.6771 33.7083 54.9309 33.8883 55.2528 34.0398C55.5786 34.1951 56.0047 34.2727 56.5312 34.2727C57.2358 34.2727 57.8172 34.1023 58.2756 33.7614C58.7339 33.4205 58.9631 32.8864 58.9631 32.1591V30.3864H58.8494C58.7509 30.5455 58.6108 30.7424 58.429 30.9773C58.2509 31.2083 57.9934 31.4148 57.6562 31.5966C57.3229 31.7746 56.8722 31.8636 56.304 31.8636C55.5994 31.8636 54.9669 31.697 54.4062 31.3636C53.8494 31.0303 53.4081 30.5455 53.0824 29.9091C52.7604 29.2727 52.5994 28.5 52.5994 27.5909C52.5994 26.697 52.7566 25.9186 53.071 25.2557C53.3854 24.589 53.8229 24.0739 54.3835 23.7102C54.9441 23.3428 55.5919 23.1591 56.3267 23.1591C56.8949 23.1591 57.3456 23.2538 57.679 23.4432C58.0161 23.6288 58.2737 23.8409 58.4517 24.0795C58.6335 24.3144 58.7737 24.5076 58.8722 24.6591H59.0085V23.2727H60.304V32.25C60.304 33 60.1335 33.6098 59.7926 34.0795C59.4555 34.553 59.0009 34.8996 58.429 35.1193C57.8608 35.3428 57.2282 35.4545 56.5312 35.4545ZM56.4858 30.6591C57.0237 30.6591 57.4782 30.536 57.8494 30.2898C58.2206 30.0436 58.5028 29.6894 58.696 29.2273C58.8892 28.7652 58.9858 28.2121 58.9858 27.5682C58.9858 26.9394 58.8911 26.3845 58.7017 25.9034C58.5123 25.4223 58.232 25.0455 57.8608 24.7727C57.4896 24.5 57.0313 24.3636 56.4858 24.3636C55.9176 24.3636 55.4441 24.5076 55.0653 24.7955C54.6903 25.0833 54.4081 25.4697 54.2188 25.9545C54.0331 26.4394 53.9403 26.9773 53.9403 27.5682C53.9403 28.1742 54.035 28.7102 54.2244 29.1761C54.4176 29.6383 54.7017 30.0019 55.0767 30.267C55.4555 30.5284 55.9252 30.6591 56.4858 30.6591ZM62.7585 32V23.2727H64.0994V32H62.7585ZM63.4403 21.8182C63.179 21.8182 62.9536 21.7292 62.7642 21.5511C62.5786 21.3731 62.4858 21.1591 62.4858 20.9091C62.4858 20.6591 62.5786 20.4451 62.7642 20.267C62.9536 20.089 63.179 20 63.4403 20C63.7017 20 63.9252 20.089 64.1108 20.267C64.3002 20.4451 64.3949 20.6591 64.3949 20.9091C64.3949 21.1591 64.3002 21.3731 64.1108 21.5511C63.9252 21.7292 63.7017 21.8182 63.4403 21.8182ZM72.7372 25.2273L71.5327 25.5682C71.4569 25.3674 71.3452 25.1723 71.1974 24.983C71.0535 24.7898 70.8565 24.6307 70.6065 24.5057C70.3565 24.3807 70.0365 24.3182 69.6463 24.3182C69.1122 24.3182 68.6671 24.4413 68.3111 24.6875C67.9588 24.9299 67.7827 25.2386 67.7827 25.6136C67.7827 25.947 67.9039 26.2102 68.1463 26.4034C68.3887 26.5966 68.7675 26.7576 69.2827 26.8864L70.5781 27.2045C71.3584 27.3939 71.9399 27.6837 72.3224 28.0739C72.705 28.4602 72.8963 28.9583 72.8963 29.5682C72.8963 30.0682 72.7524 30.5152 72.4645 30.9091C72.1804 31.303 71.7827 31.6136 71.2713 31.8409C70.7599 32.0682 70.1652 32.1818 69.4872 32.1818C68.5971 32.1818 67.8603 31.9886 67.277 31.6023C66.6937 31.2159 66.3243 30.6515 66.169 29.9091L67.4418 29.5909C67.563 30.0606 67.7921 30.4129 68.1293 30.6477C68.4702 30.8826 68.9152 31 69.4645 31C70.0895 31 70.5857 30.8674 70.9531 30.6023C71.3243 30.3333 71.5099 30.0114 71.5099 29.6364C71.5099 29.3333 71.4039 29.0795 71.1918 28.875C70.9796 28.6667 70.6539 28.5114 70.2145 28.4091L68.7599 28.0682C67.9607 27.8788 67.3736 27.5852 66.9986 27.1875C66.6274 26.786 66.4418 26.2841 66.4418 25.6818C66.4418 25.1894 66.58 24.7538 66.8565 24.375C67.1368 23.9962 67.5175 23.6989 67.9986 23.483C68.4834 23.267 69.0327 23.1591 69.6463 23.1591C70.5099 23.1591 71.188 23.3485 71.6804 23.7273C72.1766 24.1061 72.5289 24.6061 72.7372 25.2273ZM78.7102 23.2727V24.4091H74.1875V23.2727H78.7102ZM75.5057 21.1818H76.8466V29.5C76.8466 29.8788 76.9015 30.1629 77.0114 30.3523C77.125 30.5379 77.2689 30.6629 77.4432 30.7273C77.6212 30.7879 77.8087 30.8182 78.0057 30.8182C78.1534 30.8182 78.2746 30.8106 78.3693 30.7955C78.464 30.7765 78.5398 30.7614 78.5966 30.75L78.8693 31.9545C78.7784 31.9886 78.6515 32.0227 78.4886 32.0568C78.3258 32.0947 78.1193 32.1136 77.8693 32.1136C77.4905 32.1136 77.1193 32.0322 76.7557 31.8693C76.3958 31.7064 76.0966 31.4583 75.858 31.125C75.6231 30.7917 75.5057 30.3712 75.5057 29.8636V21.1818ZM84.2926 32.1818C83.4517 32.1818 82.7263 31.9962 82.1165 31.625C81.5104 31.25 81.0426 30.7273 80.7131 30.0568C80.3873 29.3826 80.2244 28.5985 80.2244 27.7045C80.2244 26.8106 80.3873 26.0227 80.7131 25.3409C81.0426 24.6553 81.5009 24.1212 82.0881 23.7386C82.679 23.3523 83.3684 23.1591 84.1562 23.1591C84.6108 23.1591 85.0597 23.2348 85.5028 23.3864C85.946 23.5379 86.3494 23.7841 86.7131 24.125C87.0767 24.4621 87.3665 24.9091 87.5824 25.4659C87.7983 26.0227 87.9062 26.7083 87.9062 27.5227V28.0909H81.179V26.9318H86.5426C86.5426 26.4394 86.4441 26 86.2472 25.6136C86.054 25.2273 85.7775 24.9223 85.4176 24.6989C85.0616 24.4754 84.6411 24.3636 84.1562 24.3636C83.6222 24.3636 83.16 24.4962 82.7699 24.7614C82.3835 25.0227 82.0862 25.3636 81.8778 25.7841C81.6695 26.2045 81.5653 26.6553 81.5653 27.1364V27.9091C81.5653 28.5682 81.679 29.1269 81.9062 29.5852C82.1373 30.0398 82.4574 30.3864 82.8665 30.625C83.2756 30.8598 83.7509 30.9773 84.2926 30.9773C84.6449 30.9773 84.9631 30.928 85.2472 30.8295C85.535 30.7273 85.7831 30.5758 85.9915 30.375C86.1998 30.1705 86.3608 29.9167 86.4744 29.6136L87.7699 29.9773C87.6335 30.4167 87.4044 30.803 87.0824 31.1364C86.7604 31.4659 86.3627 31.7235 85.8892 31.9091C85.4157 32.0909 84.8835 32.1818 84.2926 32.1818ZM89.946 32V23.2727H91.2415V24.5909H91.3324C91.4915 24.1591 91.7794 23.8087 92.196 23.5398C92.6127 23.2708 93.0824 23.1364 93.6051 23.1364C93.7036 23.1364 93.8267 23.1383 93.9744 23.142C94.1222 23.1458 94.2339 23.1515 94.3097 23.1591V24.5227C94.2642 24.5114 94.16 24.4943 93.9972 24.4716C93.8381 24.4451 93.6695 24.4318 93.4915 24.4318C93.0672 24.4318 92.6884 24.5208 92.3551 24.6989C92.0256 24.8731 91.7642 25.1155 91.571 25.4261C91.3816 25.733 91.2869 26.0833 91.2869 26.4773V32H89.946Z" fill="white"/>
</svg>
