<svg width="136" height="64" viewBox="0 0 136 64" fill="none" xmlns="http://www.w3.org/2000/svg">
<g filter="url(#filter0_d_4319_653)">
<rect x="4" width="128" height="56" rx="4" fill="#4CAF4F" shape-rendering="crispEdges"/>
<path d="M44.8752 25.1818C44.7985 24.5341 44.4874 24.0312 43.9419 23.6733C43.3965 23.3153 42.7275 23.1364 41.9348 23.1364C41.3553 23.1364 40.8482 23.2301 40.4135 23.4176C39.9831 23.6051 39.6465 23.8629 39.4036 24.1911C39.165 24.5192 39.0456 24.892 39.0456 25.3097C39.0456 25.6591 39.1287 25.9595 39.2949 26.2109C39.4654 26.4581 39.6827 26.6648 39.9469 26.831C40.2111 26.9929 40.4881 27.1271 40.7779 27.2337C41.0676 27.3359 41.334 27.419 41.5769 27.483L42.9064 27.8409C43.2473 27.9304 43.6266 28.054 44.0442 28.2116C44.4661 28.3693 44.8688 28.5845 45.2523 28.8572C45.6401 29.1257 45.9597 29.4709 46.2111 29.8928C46.4625 30.3146 46.5882 30.8324 46.5882 31.446C46.5882 32.1534 46.4029 32.7926 46.0321 33.3636C45.6657 33.9347 45.1287 34.3885 44.4213 34.7251C43.7182 35.0618 42.8638 35.2301 41.8581 35.2301C40.9206 35.2301 40.1088 35.0788 39.4228 34.7763C38.7409 34.4737 38.204 34.0518 37.812 33.5107C37.4242 32.9695 37.2047 32.3409 37.1536 31.625H38.79C38.8326 32.1193 38.9988 32.5284 39.2885 32.8523C39.5826 33.1719 39.9533 33.4105 40.4007 33.5682C40.8525 33.7216 41.3382 33.7983 41.8581 33.7983C42.4632 33.7983 43.0066 33.7003 43.4881 33.5043C43.9696 33.304 44.351 33.027 44.6323 32.6733C44.9135 32.3153 45.0542 31.8977 45.0542 31.4205C45.0542 30.9858 44.9327 30.6321 44.6898 30.3594C44.4469 30.0866 44.1273 29.8651 43.731 29.6946C43.3347 29.5241 42.9064 29.375 42.4462 29.2472L40.8354 28.7869C39.8127 28.4929 39.003 28.0732 38.4064 27.5277C37.8098 26.9822 37.5115 26.2685 37.5115 25.3864C37.5115 24.6534 37.7097 24.0142 38.106 23.4688C38.5066 22.919 39.0435 22.4929 39.7168 22.1903C40.3944 21.8835 41.1507 21.7301 41.986 21.7301C42.8297 21.7301 43.5797 21.8814 44.236 22.1839C44.8922 22.4822 45.4121 22.8913 45.7956 23.4112C46.1834 23.9311 46.388 24.5213 46.4093 25.1818H44.8752ZM48.9901 35V25.1818H50.4986V35H48.9901ZM49.7571 23.5455C49.4631 23.5455 49.2095 23.4453 48.9964 23.245C48.7876 23.0447 48.6832 22.804 48.6832 22.5227C48.6832 22.2415 48.7876 22.0007 48.9964 21.8004C49.2095 21.6001 49.4631 21.5 49.7571 21.5C50.0511 21.5 50.3026 21.6001 50.5114 21.8004C50.7244 22.0007 50.831 22.2415 50.831 22.5227C50.831 22.804 50.7244 23.0447 50.5114 23.245C50.3026 23.4453 50.0511 23.5455 49.7571 23.5455ZM57.2246 38.8864C56.4959 38.8864 55.8695 38.7926 55.3453 38.6051C54.8212 38.4219 54.3844 38.179 54.035 37.8764C53.6898 37.5781 53.415 37.2585 53.2104 36.9176L54.4121 36.0739C54.5485 36.2528 54.7211 36.4574 54.9299 36.6875C55.1387 36.9219 55.4242 37.1243 55.7864 37.2947C56.1529 37.4695 56.6323 37.5568 57.2246 37.5568C58.0172 37.5568 58.6713 37.3651 59.187 36.9815C59.7026 36.598 59.9604 35.9972 59.9604 35.179V33.1847H59.8326C59.7218 33.3636 59.5641 33.5852 59.3596 33.8494C59.1593 34.1094 58.8695 34.3416 58.4902 34.5462C58.1152 34.7464 57.6081 34.8466 56.9689 34.8466C56.1763 34.8466 55.4647 34.6591 54.834 34.2841C54.2076 33.9091 53.7111 33.3636 53.3446 32.6477C52.9824 31.9318 52.8013 31.0625 52.8013 30.0398C52.8013 29.0341 52.9782 28.1584 53.3319 27.4126C53.6855 26.6626 54.1777 26.0831 54.8084 25.674C55.4391 25.2607 56.1678 25.054 56.9945 25.054C57.6337 25.054 58.1408 25.1605 58.5158 25.3736C58.8951 25.5824 59.1848 25.821 59.3851 26.0895C59.5897 26.3537 59.7473 26.571 59.8581 26.7415H60.0115V25.1818H61.4689V35.2812C61.4689 36.125 61.2772 36.8111 60.8936 37.3395C60.5144 37.8722 60.003 38.2621 59.3596 38.5092C58.7203 38.7607 58.0087 38.8864 57.2246 38.8864ZM57.1735 33.4915C57.7786 33.4915 58.29 33.353 58.7076 33.076C59.1252 32.799 59.4426 32.4006 59.66 31.8807C59.8773 31.3608 59.986 30.7386 59.986 30.0142C59.986 29.3068 59.8794 28.6825 59.6664 28.1413C59.4533 27.6001 59.138 27.1761 58.7203 26.8693C58.3027 26.5625 57.7871 26.4091 57.1735 26.4091C56.5343 26.4091 56.0016 26.571 55.5755 26.8949C55.1536 27.2187 54.8361 27.6534 54.623 28.1989C54.4142 28.7443 54.3098 29.3494 54.3098 30.0142C54.3098 30.696 54.4164 31.299 54.6294 31.8232C54.8468 32.343 55.1664 32.7521 55.5882 33.0504C56.0144 33.3445 56.5428 33.4915 57.1735 33.4915ZM65.7388 29.0938V35H64.2303V25.1818H65.6877V26.7159H65.8155C66.0456 26.2173 66.3951 25.8168 66.8638 25.5142C67.3326 25.2074 67.9377 25.054 68.6792 25.054C69.3439 25.054 69.9256 25.1903 70.4242 25.4631C70.9228 25.7315 71.3105 26.1406 71.5875 26.6903C71.8645 27.2358 72.003 27.9261 72.003 28.7614V35H70.4945V28.8636C70.4945 28.0923 70.2942 27.4915 69.8936 27.0611C69.4931 26.6264 68.9434 26.4091 68.2445 26.4091C67.763 26.4091 67.3326 26.5135 66.9533 26.7223C66.5783 26.9311 66.2821 27.2358 66.0648 27.6364C65.8475 28.0369 65.7388 28.5227 65.7388 29.0938ZM86.0096 30.9858V25.1818H87.5181V35H86.0096V33.3381H85.9073C85.6772 33.8366 85.3192 34.2607 84.8335 34.6101C84.3477 34.9553 83.734 35.1278 82.9925 35.1278C82.3789 35.1278 81.8335 34.9936 81.3562 34.7251C80.8789 34.4524 80.5039 34.0433 80.2312 33.4979C79.9585 32.9482 79.8221 32.2557 79.8221 31.4205V25.1818H81.3306V31.3182C81.3306 32.0341 81.5309 32.6051 81.9315 33.0312C82.3363 33.4574 82.8519 33.6705 83.4783 33.6705C83.8533 33.6705 84.2347 33.5746 84.6225 33.3828C85.0146 33.1911 85.3427 32.897 85.6069 32.5007C85.8754 32.1044 86.0096 31.5994 86.0096 30.9858ZM90.2811 38.6818V25.1818H91.7385V26.7415H91.9174C92.0282 26.571 92.1816 26.3537 92.3777 26.0895C92.5779 25.821 92.8635 25.5824 93.2342 25.3736C93.6092 25.1605 94.1163 25.054 94.7555 25.054C95.5822 25.054 96.3109 25.2607 96.9416 25.674C97.5723 26.0874 98.0645 26.6733 98.4181 27.4318C98.7718 28.1903 98.9487 29.0852 98.9487 30.1165C98.9487 31.1562 98.7718 32.0575 98.4181 32.8203C98.0645 33.5788 97.5744 34.1669 96.948 34.5845C96.3216 34.9979 95.5993 35.2045 94.7811 35.2045C94.1504 35.2045 93.6454 35.1001 93.2662 34.8913C92.8869 34.6783 92.595 34.4375 92.3904 34.169C92.1859 33.8963 92.0282 33.6705 91.9174 33.4915H91.7896V38.6818H90.2811ZM91.764 30.0909C91.764 30.8324 91.8727 31.4865 92.09 32.0533C92.3074 32.6158 92.6248 33.0568 93.0424 33.3764C93.46 33.6918 93.9714 33.8494 94.5765 33.8494C95.2072 33.8494 95.7335 33.6832 96.1554 33.3509C96.5815 33.0142 96.9011 32.5625 97.1142 31.9957C97.3315 31.4247 97.4402 30.7898 97.4402 30.0909C97.4402 29.4006 97.3336 28.7784 97.1206 28.2244C96.9118 27.6662 96.5943 27.2251 96.1681 26.9013C95.7463 26.5732 95.2157 26.4091 94.5765 26.4091C93.9629 26.4091 93.4473 26.5646 93.0297 26.8757C92.612 27.1825 92.2967 27.6129 92.0836 28.1669C91.8706 28.7166 91.764 29.358 91.764 30.0909Z" fill="white"/>
</g>
<defs>
<filter id="filter0_d_4319_653" x="0" y="0" width="136" height="64" filterUnits="userSpaceOnUse" color-interpolation-filters="sRGB">
<feFlood flood-opacity="0" result="BackgroundImageFix"/>
<feColorMatrix in="SourceAlpha" type="matrix" values="0 0 0 0 0 0 0 0 0 0 0 0 0 0 0 0 0 0 127 0" result="hardAlpha"/>
<feOffset dy="4"/>
<feGaussianBlur stdDeviation="2"/>
<feComposite in2="hardAlpha" operator="out"/>
<feColorMatrix type="matrix" values="0 0 0 0 0 0 0 0 0 0 0 0 0 0 0 0 0 0 0.25 0"/>
<feBlend mode="normal" in2="BackgroundImageFix" result="effect1_dropShadow_4319_653"/>
<feBlend mode="normal" in="SourceGraphic" in2="effect1_dropShadow_4319_653" result="shape"/>
</filter>
</defs>
</svg>
