<svg width="17" height="18" viewBox="0 0 17 18" fill="none" xmlns="http://www.w3.org/2000/svg">
<path fill-rule="evenodd" clip-rule="evenodd" d="M16.5303 0.969691C16.7341 1.17342 16.8031 1.47584 16.7079 1.74778L11.4579 16.7478C11.3563 17.038 11.0878 17.2369 10.7806 17.2494C10.4733 17.2619 10.1895 17.0856 10.0646 16.8046L7.1818 10.3182L0.6954 7.43538C0.41439 7.31049 0.238092 7.02671 0.250627 6.71945C0.263163 6.41219 0.461991 6.14371 0.752241 6.04213L15.7522 0.792127C16.0242 0.696948 16.3266 0.765962 16.5303 0.969691ZM8.64456 9.91612L10.6671 14.4667L14.2064 4.35429L8.64456 9.91612ZM13.1457 3.29362L3.03331 6.83297L7.5839 8.85546L13.1457 3.29362Z" fill="white"/>
</svg>
