<svg width="47" height="24" viewBox="0 0 47 24" fill="none" xmlns="http://www.w3.org/2000/svg">
<path d="M1.58523 19V5.90909H3.17045V17.5938H9.25568V19H1.58523ZM14.3949 19.2301C13.7727 19.2301 13.2081 19.1129 12.701 18.8786C12.1939 18.6399 11.7912 18.2969 11.4929 17.8494C11.1946 17.3977 11.0455 16.8523 11.0455 16.2131C11.0455 15.6506 11.1563 15.1946 11.3778 14.8452C11.5994 14.4915 11.8956 14.2145 12.2663 14.0142C12.6371 13.8139 13.0462 13.6648 13.4936 13.5668C13.9453 13.4645 14.3991 13.3835 14.8551 13.3239C15.4517 13.2472 15.9354 13.1896 16.3061 13.1513C16.6811 13.1087 16.9538 13.0384 17.1243 12.9403C17.299 12.8423 17.3864 12.6719 17.3864 12.429V12.3778C17.3864 11.7472 17.2138 11.2571 16.8686 10.9077C16.5277 10.5582 16.0099 10.3835 15.3153 10.3835C14.5952 10.3835 14.0305 10.5412 13.6214 10.8565C13.2124 11.1719 12.9247 11.5085 12.7585 11.8665L11.3267 11.3551C11.5824 10.7585 11.9233 10.294 12.3494 9.96165C12.7798 9.625 13.2486 9.39062 13.7557 9.25852C14.267 9.12216 14.7699 9.05398 15.2642 9.05398C15.5795 9.05398 15.9418 9.09233 16.3509 9.16903C16.7642 9.24148 17.1626 9.39276 17.5462 9.62287C17.9339 9.85298 18.2557 10.2003 18.5114 10.6648C18.767 11.1293 18.8949 11.7514 18.8949 12.5312V19H17.3864V17.6705H17.3097C17.2074 17.8835 17.0369 18.1115 16.7983 18.3544C16.5597 18.5973 16.2422 18.804 15.8459 18.9744C15.4496 19.1449 14.9659 19.2301 14.3949 19.2301ZM14.625 17.875C15.2216 17.875 15.7244 17.7578 16.1335 17.5234C16.5469 17.2891 16.858 16.9865 17.0668 16.6158C17.2798 16.245 17.3864 15.8551 17.3864 15.446V14.0653C17.3224 14.142 17.1818 14.2124 16.9645 14.2763C16.7514 14.3359 16.5043 14.3892 16.223 14.4361C15.946 14.4787 15.6754 14.517 15.4112 14.5511C15.1513 14.581 14.9403 14.6065 14.7784 14.6278C14.3864 14.679 14.0199 14.7621 13.679 14.8771C13.3423 14.9879 13.0696 15.1562 12.8608 15.3821C12.6563 15.6037 12.554 15.9062 12.554 16.2898C12.554 16.8139 12.7479 17.2102 13.1357 17.4787C13.5277 17.7429 14.0241 17.875 14.625 17.875ZM21.8528 19V5.90909H23.3613V10.7415H23.4892C23.6 10.571 23.7534 10.3537 23.9494 10.0895C24.1497 9.82102 24.4352 9.58239 24.8059 9.37358C25.1809 9.16051 25.688 9.05398 26.3272 9.05398C27.1539 9.05398 27.8826 9.26065 28.5133 9.67401C29.144 10.0874 29.6362 10.6733 29.9899 11.4318C30.3436 12.1903 30.5204 13.0852 30.5204 14.1165C30.5204 15.1562 30.3436 16.0575 29.9899 16.8203C29.6362 17.5788 29.1461 18.1669 28.5197 18.5845C27.8933 18.9979 27.171 19.2045 26.3528 19.2045C25.7221 19.2045 25.2172 19.1001 24.8379 18.8913C24.4586 18.6783 24.1667 18.4375 23.9622 18.169C23.7576 17.8963 23.6 17.6705 23.4892 17.4915H23.3102V19H21.8528ZM23.3358 14.0909C23.3358 14.8324 23.4444 15.4865 23.6618 16.0533C23.8791 16.6158 24.1966 17.0568 24.6142 17.3764C25.0318 17.6918 25.5431 17.8494 26.1483 17.8494C26.7789 17.8494 27.3052 17.6832 27.7271 17.3509C28.1532 17.0142 28.4728 16.5625 28.6859 15.9957C28.9032 15.4247 29.0119 14.7898 29.0119 14.0909C29.0119 13.4006 28.9054 12.7784 28.6923 12.2244C28.4835 11.6662 28.166 11.2251 27.7399 10.9013C27.318 10.5732 26.7875 10.4091 26.1483 10.4091C25.5346 10.4091 25.019 10.5646 24.6014 10.8757C24.1838 11.1825 23.8684 11.6129 23.6554 12.1669C23.4423 12.7166 23.3358 13.358 23.3358 14.0909ZM36.9444 19.2045C35.9984 19.2045 35.1824 18.9957 34.4963 18.5781C33.8145 18.1562 33.2882 17.5682 32.9174 16.8139C32.551 16.0554 32.3677 15.1733 32.3677 14.1676C32.3677 13.1619 32.551 12.2756 32.9174 11.5085C33.2882 10.7372 33.8038 10.1364 34.4643 9.70597C35.1291 9.27131 35.9047 9.05398 36.791 9.05398C37.3024 9.05398 37.8074 9.1392 38.3059 9.30966C38.8045 9.48011 39.2583 9.7571 39.6674 10.1406C40.0765 10.5199 40.4025 11.0227 40.6454 11.6491C40.8883 12.2756 41.0098 13.0469 41.0098 13.9631V14.6023H33.4416V13.2983H39.4757C39.4757 12.7443 39.3649 12.25 39.1433 11.8153C38.926 11.3807 38.6149 11.0376 38.2101 10.7862C37.8095 10.5348 37.3365 10.4091 36.791 10.4091C36.1902 10.4091 35.6703 10.5582 35.2314 10.8565C34.7967 11.1506 34.4622 11.5341 34.2278 12.0071C33.9934 12.4801 33.8762 12.9872 33.8762 13.5284V14.3977C33.8762 15.1392 34.0041 15.7678 34.2598 16.2834C34.5197 16.7947 34.8798 17.1847 35.34 17.4531C35.8002 17.7173 36.3351 17.8494 36.9444 17.8494C37.3407 17.8494 37.6987 17.794 38.0183 17.6832C38.3422 17.5682 38.6213 17.3977 38.8556 17.1719C39.09 16.9418 39.2711 16.6562 39.399 16.3153L40.8564 16.7244C40.7029 17.2188 40.4451 17.6534 40.0829 18.0284C39.7207 18.3991 39.2733 18.6889 38.7406 18.8977C38.2079 19.1023 37.6092 19.2045 36.9444 19.2045ZM44.813 5.90909V19H43.3045V5.90909H44.813Z" fill="#263238"/>
</svg>
